<svg xmlns="http://www.w3.org/2000/svg" viewBox="0 0 209.875 50">
  <path fill="#fff" d="M104.963 50c57.911 0 104.912-8.532 104.912-25S162.837 0 104.963 0C46.882 0 0 8.694 0 25c0 16.468 47.006 25 104.963 25z"/>
  <path d="M104.964 48.323C43.027 48.323 2.231 38.877 2.231 25c0-13.8 41.06-23.325 102.733-23.325 61.878 0 102.68 9.453 102.68 23.325s-40.781 23.323-102.68 23.323z"/>
  <path fill="#fff" d="M53.149 35.91l.008-13.867c0-1.923-1.055-2.936-2.712-2.936s-2.685 1.206-2.687 3.13V35.91h-6.36V22.276c0-5.348 3.325-8.766 8.094-8.766 3.707 0 6.163 2.022 6.789 4 .627-1.973 3.085-4 6.792-4 4.768 0 8.094 3.418 8.094 8.766v13.63h-6.359l.011-13.673c0-1.924-1.055-3.13-2.712-3.13s-2.692 1.017-2.692 2.94V35.91zM109.536 24.977a5.514 5.514 0 105.54-5.588 5.459 5.459 0 00-5.54 5.588zM151.584 25.028a5.514 5.514 0 105.54-5.59 5.462 5.462 0 00-5.54 5.59zm-6.405-.05c0-6.6 5.25-11.463 11.945-11.463 6.646 0 11.9 4.865 11.9 11.463 0 6.645-5.252 11.51-11.9 11.51-6.695-.001-11.945-4.866-11.945-11.512zM128.536 35.91V14.092h5.4l.674 3.036a5.027 5.027 0 014.816-3.518 5.98 5.98 0 014.43 2.072l-2.888 5.347a4.163 4.163 0 00-2.888-1.3 2.925 2.925 0 00-3.181 2.747V35.91z"/>
  <path d="M115.076 36.487c-6.7 0-11.946-4.865-11.946-11.51 0-6.6 5.25-11.463 11.946-11.463a10.883 10.883 0 017.7 2.888l-3.752 4.674a5.573 5.573 0 10.012 7.823l3.743 4.7a11.142 11.142 0 01-7.703 2.888z" fill="#3896dd"/>
  <path fill="#fff" d="M77.029 22.136H97.84v5.729H77.029z"/>
</svg>