<?xml version="1.0" encoding="UTF-8"?>
<svg width="40px" height="40px" viewBox="0 0 40 40" version="1.1" xmlns="http://www.w3.org/2000/svg" xmlns:xlink="http://www.w3.org/1999/xlink">
    <!-- Generator: Sketch 55.2 (78181) - https://sketchapp.com -->
    <title>Icon-Medizintechnik-white</title>
    <desc>Created with Sketch.</desc>
    <defs>
        <polygon id="path-1" points="0 0 53.8481703 0 53.8481703 47.4098021 0 47.4098021"></polygon>
    </defs>
    <g id="Icon-Medizintechnik-white" stroke="none" stroke-width="1" fill="none" fill-rule="evenodd">
        <g id="Icon-Medizintechnik">
            <g id="Group-3">
                <mask id="mask-2" fill="white">
                    <use xlink:href="#path-1"></use>
                </mask>
                <g id="Clip-2" opacity="0"></g>
            </g>
        </g>
        <path d="M28.5066395,21 C27.1300317,21 26,19.6541123 26,17.9964105 C26,16.3452635 27.1300317,15 28.5066395,15 C29.8832473,15 31,16.3452635 31,17.9964105 C31.0005206,19.653488 29.8832473,21 28.5066395,21 M33,18.5401397 C33,16.3278025 31.156418,14.5266347 28.8981225,14.5266347 C26.6395424,14.5266347 24.7948218,16.3272446 24.7948218,18.5401397 C24.7948218,20.5326658 26.2720784,22.1748331 28.2093054,22.4917181 L28.2093054,26.7063446 C28.2093054,29.9915161 25.4884777,32.6577019 22.1366139,32.6577019 C18.7844655,32.6577019 16.0633532,29.9909582 16.0633532,26.7063446 L16.0482676,21.8780324 C17.637955,21.670216 19.1914938,20.7591716 20.5733976,19.2029203 C20.7766271,18.9747408 20.8383929,18.6798927 20.8033828,18.398434 C22.6091083,16.0583386 23.729717,12.8710779 23.729717,10.4213559 C23.729717,6.63937785 22.0002737,6.24661896 19.1408287,5.60503838 L19.1365592,5.59806468 C18.9606547,5.25133222 18.6057146,5 18.1756309,5 C17.5710657,5 17.0812086,5.47979069 17.0812086,6.06502376 C17.0812086,6.65723053 17.5704965,7.13702122 18.1756309,7.13702122 C18.4147244,7.13702122 18.6390169,7.03966834 18.8169139,6.9007522 L18.8425311,6.91023643 C21.6188626,7.53480118 22.3680223,7.70412266 22.3680223,10.4213559 C22.3680223,12.5759508 21.3273961,15.4613897 19.7371394,17.5448529 C19.4741365,17.5599161 19.2136953,17.6737269 19.0187202,17.8857275 C18.2063714,18.8076509 16.9075811,19.9106116 15.3739668,19.9106116 C13.8412064,19.9106116 12.5438393,18.817972 11.7312059,17.898838 C11.5359461,17.6862796 11.2760742,17.5727477 11.0144945,17.5582424 C9.41996825,15.4672476 8.37734961,12.5781824 8.37734961,10.420798 C8.37734961,7.70189108 9.11427007,7.53284854 11.9076797,6.90856274 L11.9170726,6.89963641 C12.1089167,7.0382736 12.3175543,7.13646332 12.5723028,7.13646332 C13.1765833,7.13646332 13.6655865,6.65611473 13.6655865,6.06446586 C13.6650172,5.47979069 13.1765833,5 12.5717335,5 C12.1402266,5 11.7858558,5.25133222 11.597712,5.59694889 L11.5951503,5.59750678 C8.73228967,6.24466632 7,6.63045151 7,10.4213559 C7,12.8735884 8.12487821,16.072286 9.94682796,18.4121025 C9.91210247,18.6932822 9.97415294,18.9884092 10.1773825,19.2163098 C11.5575784,20.7619611 13.0966008,21.6696581 14.6840112,21.8780324 L14.6862882,26.7057867 C14.6865729,30.728218 18.032744,34 22.1366139,34 C26.2399146,34 29.571854,30.728218 29.571854,26.7057867 L29.571854,22.4911602 C31.5085117,22.1742752 33,20.5321079 33,18.5401397" id="Fill-1" stroke="#FFFFFF" fill="#FFFFFF"></path>
    </g>
</svg>