<?xml version="1.0" encoding="UTF-8"?>
<svg width="40px" height="40px" viewBox="0 0 40 40" version="1.1" xmlns="http://www.w3.org/2000/svg" xmlns:xlink="http://www.w3.org/1999/xlink">
    <!-- Generator: Sketch 55.2 (78181) - https://sketchapp.com -->
    <title>Icon_Labor Copy</title>
    <desc>Created with Sketch.</desc>
    <defs>
        <polygon id="path-1" points="0.0917749716 0.0926344736 23.7952725 0.0926344736 23.7952725 25.9480318 0.0917749716 25.9480318"></polygon>
        <polygon id="path-3" points="0 0.0527304084 15.5454527 0.0527304084 15.5454527 15.6805882 0 15.6805882"></polygon>
    </defs>
    <g id="Icon_Labor-Copy" stroke="none" stroke-width="1" fill="none" fill-rule="evenodd">
        <g id="Icon_Labor" transform="translate(3.000000, 8.000000)">
            <g id="Group-7">
                <g id="Group-3" transform="translate(9.166667, 0.000000)">
                    <mask id="mask-2" fill="white">
                        <use xlink:href="#path-1"></use>
                    </mask>
                    <g id="Clip-2"></g>
                    <path d="M5.19688012,16.2520956 L10.3499287,7.54263876 L10.3499287,1.70887251 L13.5368802,1.70887251 L13.5368802,7.54263876 L18.6902487,16.2520956 L5.19688012,16.2520956 Z M23.005619,20.4054025 L15.1306758,7.09827872 L15.1306758,1.70887251 L15.9274137,1.70887251 C16.3656036,1.70887251 16.7238318,1.34527571 16.7238318,0.900591315 C16.7238318,0.45655562 16.3656036,0.0926344736 15.9274137,0.0926344736 L7.95971506,0.0926344736 C7.52152522,0.0926344736 7.16297718,0.45655562 7.16297718,0.900591315 C7.16297718,1.34527571 7.52152522,1.70887251 7.95971506,1.70887251 L8.75645294,1.70887251 L8.75645294,7.09827872 L0.881509791,20.4054025 C-0.922425035,23.4536475 0.47050691,25.9482264 3.97602565,25.9482264 L19.9111031,25.9482264 C23.4169417,25.9482264 24.809234,23.4536475 23.005619,20.4054025 L23.005619,20.4054025 Z" id="Fill-1" fill="#FFFFFF" mask="url(#mask-2)"></path>
                </g>
                <g id="Group-6">
                    <mask id="mask-4" fill="white">
                        <use xlink:href="#path-3"></use>
                    </mask>
                    <g id="Clip-5"></g>
                    <path d="M14.5170572,6.49551268 L5.31983828,14.9570271 L5.32017741,14.9576512 C5.3167861,14.9601473 5.31373393,14.9620194 5.31102088,14.9651395 L5.25438609,15.0169339 L5.25167305,15.0141258 C4.73246426,15.4587461 4.06030763,15.6805882 3.36407273,15.6805882 C2.53422042,15.6805882 1.6731681,15.369198 1.00711582,14.75609 C0.414315721,14.2116251 0.0592460968,13.507721 0.00668087068,12.7747995 C-0.0452060945,12.0499904 0.204393947,11.3810318 0.704950552,10.8746327 L0.700202725,10.8699525 L9.78957815,2.50734652 C10.5570304,1.80125827 11.8616654,1.85336465 12.6986395,2.62279179 C13.0906743,2.98379228 13.3267092,3.45181366 13.3616396,3.94042798 C13.398944,4.45493948 13.2025874,4.95010609 12.8231004,5.29925004 L5.42395134,12.107401 L4.39706421,11.1626218 L11.7965524,4.35447089 C11.9050742,4.25462633 11.9196568,4.1226443 11.9128742,4.02935204 C11.9010046,3.86616858 11.8128307,3.6979929 11.6710741,3.56757095 C11.4051958,3.32295177 11.0138392,3.27053338 10.8161261,3.4527497 L1.81594204,11.7326719 L1.81628117,11.7329839 C1.55650722,11.9716748 1.42831589,12.3105223 1.45544633,12.6868115 C1.48495068,13.0961742 1.69046376,13.4958644 2.03366382,13.8119348 C2.7153161,14.4387715 3.72660323,14.5298796 4.28989897,14.0156802 L13.4911875,5.55104554 C13.9195093,5.15634751 14.1314658,4.60189819 14.0873789,3.98972623 C14.0412571,3.34416874 13.7197614,2.7170201 13.1829178,2.22341355 C12.1007524,1.22777608 10.4790304,1.10047426 9.56609115,1.93948058 L1.95430728,8.94295246 L0.927759285,7.99848532 L8.53954316,0.995013446 C10.017813,-0.364744659 12.5612917,-0.238066873 14.209805,1.2786344 C14.9955703,2.00094739 15.4666226,2.93230993 15.5364835,3.90111418 C15.6083791,4.90330395 15.2461878,5.82468204 14.5170572,6.49551268" id="Fill-4" fill="#FFFFFF" mask="url(#mask-4)"></path>
                </g>
            </g>
        </g>
    </g>
</svg>