<?xml version="1.0" encoding="UTF-8"?>
<svg width="40px" height="40px" viewBox="0 0 40 40" version="1.1" xmlns="http://www.w3.org/2000/svg" xmlns:xlink="http://www.w3.org/1999/xlink">
    <!-- Generator: Sketch 55.2 (78181) - https://sketchapp.com -->
    <title>Icon-Betriebsaustattung-white</title>
    <desc>Created with Sketch.</desc>
    <defs>
        <polygon id="path-1" points="0.100660888 0.106131386 14.0909137 0.106131386 14.0909137 12.0839627 0.100660888 12.0839627"></polygon>
    </defs>
    <g id="Icon-Betriebsaustattung-white" stroke="none" stroke-width="1" fill="none" fill-rule="evenodd">
        <g id="Icon-Betriebsaustattung" transform="translate(1.000000, 5.000000)">
            <g id="Group-8">
                <path d="M11.4676726,15.4314466 C8.8162324,15.4314466 6.65942257,13.3668771 6.65942257,10.8288312 C6.65942257,8.29113857 8.8162324,6.22621576 11.4676726,6.22621576 C14.1191128,6.22621576 16.2759226,8.29113857 16.2759226,10.8288312 C16.2759226,13.3668771 14.1191128,15.4314466 11.4676726,15.4314466 L11.4676726,15.4314466 Z M16.2899494,18.2422716 C17.020452,17.8051892 17.682297,17.2719981 18.2559205,16.6610721 L20.3234016,17.8041291 L22.2059499,14.6827178 L20.1425293,13.5421341 C20.4049787,12.7753849 20.5592738,11.962348 20.5880657,11.1192772 L22.9357143,10.7231823 L22.2812519,7.17352206 L19.9347107,7.56997028 C19.610248,6.80039433 19.1750471,6.08487949 18.6475644,5.44179949 L20.1816568,3.69170321 L17.2972974,1.37520185 L15.7643124,3.12388477 C15.0157226,2.73980347 14.2051194,2.45253752 13.3505901,2.28046061 L13.3505901,0 L9.58512421,0 L9.58512421,2.28046061 C8.7305949,2.45253752 7.91999172,2.73980347 7.17103277,3.12388477 L5.63841693,1.37520185 L2.75405752,3.69170321 L4.28814988,5.44215283 C3.76029808,6.08487949 3.3250972,6.80039433 3.00063445,7.56997028 L0.653724149,7.17352206 L0,10.7231823 L2.34727943,11.1192772 C2.37607134,11.9627014 2.53036648,12.7753849 2.79281587,13.5424874 L0.729395211,14.6830711 L2.61157445,17.8041291 L4.67942464,16.6614254 C5.2530482,17.2723514 5.91452402,17.8055425 6.64576487,18.2426249 L5.82925565,20.3888161 L9.3673392,21.6212683 L10.182741,19.4779038 C10.6028077,19.5347917 11.0313643,19.5648256 11.4676726,19.5648256 C11.9039808,19.5648256 12.3329066,19.535145 12.7529732,19.4779038 L13.5676368,21.6216216 L17.1057204,20.3884627 L16.2899494,18.2422716 Z" id="Fill-1" fill="#FFFFFF"></path>
                <path d="M26.0566653,27.453462 C24.2209319,27.7021172 22.5196435,26.4535878 22.2637294,24.6699244 C22.0078153,22.8859108 23.2931531,21.2325287 25.1292469,20.9842237 C26.9646199,20.7355685 28.6655478,21.9847983 28.9218224,23.7684617 C29.1773761,25.5517749 27.8923988,27.2048068 26.0566653,27.453462 L26.0566653,27.453462 Z M32.7111539,20.6368069 L31.125928,21.1348177 C30.8242377,20.6245492 30.4500984,20.1626109 30.0200906,19.7602097 L30.9056977,18.3863021 L28.6760007,17.0288547 L27.790754,18.4010113 C27.2338704,18.2017369 26.6438261,18.0760084 26.0343179,18.0350328 L25.8050765,16.4324324 L23.1976358,16.7854528 L23.4279585,18.3880532 C22.8534133,18.5890787 22.3210398,18.866802 21.8412908,19.2072145 L20.6042523,18.121887 L18.8409679,20.0200719 L20.0790877,21.10645 C19.7788391,21.6079631 19.5495977,22.1511522 19.4028976,22.7227089 L17.7376535,22.6642224 L17.6428571,25.2197677 L19.3073804,25.2782542 C19.4126296,25.8680223 19.6015014,26.4245197 19.8606596,26.9389908 L18.5468468,27.9339619 L20.164873,29.9508709 L21.4808484,28.9541487 C21.9393312,29.3295831 22.4515199,29.6423283 23.0011947,29.8811774 L22.6526468,31.4659166 L25.2258455,32 L25.5747538,30.4177123 C25.8710375,30.418763 26.1709256,30.3988005 26.4726159,30.3581751 C26.7750272,30.3175498 27.0691482,30.2555611 27.3542582,30.1764117 L28.1346161,31.6063543 L30.4594699,30.4086066 L29.6783911,28.9769129 C30.1401179,28.6007781 30.5441739,28.1640555 30.8801063,27.6811041 L32.4264044,28.2904845 L33.4154585,25.9209053 L31.8720439,25.3125756 C31.9762118,24.7494241 32.0007219,24.1635083 31.9362027,23.5681367 L33.5214286,23.0694254 L32.7111539,20.6368069 Z" id="Fill-3" fill="#FFFFFF"></path>
                <g id="Group-7" transform="translate(22.935714, 4.324324)">
                    <mask id="mask-2" fill="white">
                        <use xlink:href="#path-1"></use>
                    </mask>
                    <g id="Clip-6"></g>
                    <path d="M8.4917525,8.30520755 C7.0523018,8.96178885 5.25087455,8.50416124 4.47618836,7.28450344 C3.70109952,6.06518691 4.24104453,4.53805522 5.68089786,3.88147391 C7.11954327,3.22421009 8.92097052,3.68286148 9.69605936,4.90217802 C10.4707455,6.12217707 9.9303979,7.64828498 8.4917525,8.30520755 L8.4917525,8.30520755 Z M14.0220617,7.25140137 L14.0909137,5.28507003 L12.6228753,5.24821411 C12.53067,4.81481585 12.3663914,4.38585394 12.1248053,3.97327244 L13.278379,3.20100451 L11.839331,1.65783368 L10.6865625,2.4294191 C10.2758661,2.14003191 9.82087886,1.90388104 9.33810924,1.72574412 L9.63606547,0.504721287 L7.36394791,0.106131386 L7.06518639,1.32613044 C6.54134713,1.32681296 6.01428672,1.38994578 5.4972924,1.51860022 L4.8011217,0.422819253 L2.75770568,1.35581993 L3.45347374,2.4516009 C3.04277732,2.7457657 2.69046421,3.08497663 2.40136614,3.45490082 L1.03559921,2.99420187 L0.177565806,4.82164102 L1.54413802,5.28336374 C1.45394586,5.72324591 1.43663219,6.17404836 1.49541815,6.62450955 L0.100660888,7.01559176 L0.829043072,8.88329941 L2.22420298,8.49221719 C2.4971953,8.89046583 2.82937623,9.24264458 3.2062506,9.54636463 L2.43438291,10.6056309 L4.40894689,11.6393029 L5.18242515,10.5783303 C5.68049522,10.7295078 6.20232126,10.8216476 6.73260282,10.8506545 L6.94399068,12.0839627 L9.24107214,11.8000356 L9.02968428,10.5677512 C9.27449156,10.4916506 9.51648033,10.3995108 9.75323474,10.2913319 C9.99039179,10.1831529 10.2142616,10.0623474 10.4248442,9.93130419 L11.5212426,10.7591973 L13.0653806,9.29042077 L11.9673716,8.46150393 C12.2302979,8.07008046 12.4263853,7.65033253 12.5516074,7.21454545 L14.0220617,7.25140137 Z" id="Fill-5" fill="#FFFFFF" mask="url(#mask-2)"></path>
                </g>
            </g>
        </g>
    </g>
</svg>