<?xml version="1.0" encoding="UTF-8"?>
<svg width="40px" height="40px" viewBox="0 0 40 40" version="1.1" xmlns="http://www.w3.org/2000/svg" xmlns:xlink="http://www.w3.org/1999/xlink">
    <!-- Generator: Sketch 55.2 (78181) - https://sketchapp.com -->
    <title>Icon_Ladenbau-white</title>
    <desc>Created with Sketch.</desc>
    <defs>
        <polygon id="path-1" points="0 0 30.9105866 0 30.9105866 23.3151716 0 23.3151716"></polygon>
    </defs>
    <g id="Icon_Ladenbau-white" stroke="none" stroke-width="1" fill="none" fill-rule="evenodd">
        <g id="Icon_Ladenbau" transform="translate(4.000000, 3.000000)">
            <path d="M23.5,25 C21.5749589,25 20,26.5750514 20,28.5002055 C20,30.4249486 21.5749589,32 23.5,32 C25.4246302,32 27,30.4249486 27,28.5002055 C27,26.5750514 25.4246302,25 23.5,25" id="Fill-1" fill="#FFFFFF"></path>
            <path d="M10.4997945,25 C8.57464045,25 7,26.5750514 7,28.5002055 C7,30.4249486 8.57464045,32 10.4997945,32 C12.4249486,32 14,30.4249486 14,28.5002055 C14,26.5750514 12.4249486,25 10.4997945,25" id="Fill-3" fill="#FFFFFF"></path>
            <g id="Group-7">
                <mask id="mask-2" fill="white">
                    <use xlink:href="#path-1"></use>
                </mask>
                <g id="Clip-6"></g>
                <path d="M8.67313319,8.89494851 L25.4165785,8.90463974 C25.4165785,8.90463974 23.1514766,13.1024584 22.255614,14.4740709 C21.2405039,16.0276969 19.6872739,16.0055974 19.6872739,16.0055974 L11.9846628,16.0055974 L8.67313319,8.89494851 Z M11.6184884,18.589514 L21.1086088,18.589514 C22.1342585,18.589514 22.9039475,18.0737587 23.2884908,17.2999742 L27.905119,8.91675378 C28.161682,8.65902753 28.161682,8.52971012 28.161682,8.27198386 C28.161682,7.49819938 27.648556,6.98214116 26.8791682,6.98214116 L7.89983065,6.98214116 L6.74559833,4.40275862 L2.51351351,4.40275862 L2.51351351,6.98214116 L5.07824002,6.98214116 L9.69516932,16.7842188 L7.89983065,19.8796596 C7.77154916,20.2664004 7.64326766,20.7824586 7.64326766,21.1688966 C7.64326766,22.5880567 8.79719886,23.748582 10.2079942,23.748582 L25.5969555,23.748582 L25.5969555,21.1688966 L10.720819,21.1688966 C10.5925375,21.1688966 10.4645572,21.0401849 10.4645572,20.9114732 L10.4645572,20.7821558 L11.6184884,18.589514 Z" id="Fill-5" fill="#FFFFFF" mask="url(#mask-2)"></path>
            </g>
        </g>
    </g>
</svg>