<?xml version="1.0" encoding="UTF-8"?>
<svg width="180px" height="21px" viewBox="0 0 180 21" version="1.1" xmlns="http://www.w3.org/2000/svg" xmlns:xlink="http://www.w3.org/1999/xlink">
    <!-- Generator: Sketch 55.2 (78181) - https://sketchapp.com -->
    <title>Group 27</title>
    <desc>Created with Sketch.</desc>
    <defs>
        <polygon id="path-1" points="0.174521739 0.241344444 12.8149606 0.241344444 12.8149606 20.9992222 0.174521739 20.9992222"></polygon>
        <polygon id="path-3" points="0 0.319973364 30.5616221 0.319973364 30.5616221 18.0541167 0 18.0541167"></polygon>
        <polygon id="path-5" points="0 20.9 178.819423 20.9 178.819423 0.239962963 0 0.239962963"></polygon>
    </defs>
    <g id="Desktop-xl-1440---Basisdesign" stroke="none" stroke-width="1" fill="none" fill-rule="evenodd">
        <g id="00---Startseite---final" transform="translate(-51.000000, -92.000000)">
            <g id="Group-27" transform="translate(51.000000, 92.000000)">
                <path d="M90.4524245,0 C90.4894429,0.0625847604 90.5198803,0.130715006 90.5643024,0.187754281 C94.1271194,4.74614303 97.6907591,9.30453178 101.255221,13.8621283 C101.300466,13.9199598 101.351469,13.9746224 101.434555,14.0720645 L101.434555,0.556925146 L105.5,0.556925146 L105.5,20.9959988 L105.268841,20.9959988 C104.439628,20.996791 103.611238,20.9928299 102.782026,21 C102.630661,21.0015443 102.536881,20.9563882 102.445569,20.8391408 C100.553517,18.4141794 98.6581738,15.9915946 96.7628308,13.5690098 C95.0937114,11.4339981 93.4254147,9.29898629 91.7562954,7.16476674 C91.7077602,7.10218198 91.6542891,7.04355828 91.5605091,6.9991944 L91.5605091,20.5983083 L87.5,20.5983083 L87.5,0" id="Fill-1" fill="#183962"></path>
                <g id="Group-10" transform="translate(35.500000, 0.000000)">
                    <path d="M97.982687,4.02165556 C97.054513,4.03332222 96.2351217,4.22387778 95.4759913,4.63376667 C93.1892087,5.86965556 91.7899043,8.60665556 92.1608609,11.1943222 C92.4472957,13.1877667 93.382513,14.8444333 94.9626,16.1137667 C96.5880783,17.4196556 98.558687,17.5534333 100.30547,16.4995444 C101.333035,15.8788778 102.099209,15.0038778 102.693209,13.9756556 C103.295035,12.9326556 103.688687,11.8165444 103.716078,10.6078778 C103.755209,8.89054444 103.20347,7.35987778 102.0906,6.04698889 C101.005122,4.76598889 99.6222522,4.06132222 97.982687,4.02165556 M98.5172087,0.241655556 C98.782513,0.275877778 99.0493826,0.3101 99.3154696,0.345877778 C100.754687,0.538766667 102.074165,1.04587778 103.268426,1.86176667 C105.071557,3.09376667 106.304948,4.76521111 107.051557,6.79754444 C107.552426,8.16332222 107.774687,9.5781 107.7066,11.0294333 C107.573557,13.8496556 106.606252,16.3276556 104.561296,18.3312111 C103.1526,19.7109889 101.458252,20.5533222 99.5009478,20.8551 C97.1961652,21.2121 95.0111217,20.8589889 92.9998174,19.6619889 C90.9032087,18.4144333 89.5219043,16.5827667 88.7236435,14.3038778 C88.2799043,13.0384333 88.0686,11.7309889 88.1147739,10.3947667 C88.2368609,6.86054444 89.6111217,3.95243333 92.5506,1.86954444 C93.8051217,0.980544444 95.2239913,0.483544444 96.7563391,0.311655556 C96.9371217,0.290655556 97.1171217,0.264988889 97.2979043,0.241655556" id="Fill-3" fill="#183962"></path>
                    <path d="M81.7366696,0.241344444 C82.0098,0.276344444 82.2821478,0.309011111 82.5552783,0.346344444 C84.2269304,0.578122222 85.7185826,1.22601111 87.0388435,2.26434444 C87.2611043,2.43856667 87.4700609,2.62678889 87.6962348,2.81812222 C86.8549304,4.00423333 86.2366696,5.28445556 85.8242348,6.66656667 C85.5738,6.36712222 85.3460609,6.06456667 85.0878,5.79001111 C84.2582348,4.90878889 83.2533652,4.31067778 82.0481478,4.10767778 C80.3271913,3.81834444 78.8175391,4.30212222 77.5371913,5.46101111 C76.2709304,6.60667778 75.5736261,8.05334444 75.3764087,9.73801111 C75.2050174,11.1947889 75.5814522,12.5395667 76.2709304,13.8089 C76.8594522,14.8923444 77.6436261,15.8070111 78.7009304,16.4681222 C79.4843217,16.9581222 80.3381478,17.2272333 81.267887,17.1992333 C82.2931043,17.1673444 83.193887,16.7901222 84.003887,16.1834556 C84.6354522,15.7113444 85.1582348,15.1381222 85.5996261,14.4902333 C85.6473652,14.4210111 85.6951043,14.3517889 85.7600609,14.2569 C86.1858,15.7556778 86.8306696,17.1199 87.7455391,18.3954556 C87.4309304,18.6521222 87.1288435,18.9189 86.8064087,19.1584556 C85.4924087,20.1353444 84.0132783,20.7272333 82.3878,20.9100111 C79.4655391,21.2374556 76.8618,20.4915667 74.6736261,18.4989 C73.1819739,17.1409 72.2350174,15.4507889 71.7184957,13.5149 C71.4187565,12.3886778 71.2818,11.2399 71.3584957,10.0810111 C71.6034522,6.4169 73.139713,3.47612222 76.3452783,1.5169 C77.5810174,0.763233333 78.9474522,0.375122222 80.393713,0.274011111 C80.4484957,0.270122222 80.5009304,0.252233333 80.5533652,0.241344444" id="Fill-5" fill="#183962"></path>
                    <g id="Group-9">
                        <mask id="mask-2" fill="white">
                            <use xlink:href="#path-1"></use>
                        </mask>
                        <g id="Clip-8"></g>
                        <path d="M7.07321739,0.241344444 C7.33930435,0.278677778 7.60773913,0.305122222 7.87147826,0.354122222 C9.38973913,0.637233333 10.7890435,1.17701111 11.9473043,2.23167778 C12.1672174,2.43156667 12.1656522,2.43156667 11.9942609,2.68278889 C11.4988696,3.41234444 11.0026957,4.14267778 10.508087,4.87145556 C10.4603478,4.94223333 10.4102609,5.01145556 10.353913,5.09234444 C10.1684348,4.88778889 9.9986087,4.68323333 9.81,4.49656667 C9.1526087,3.84712222 8.35826087,3.49867778 7.42930435,3.48623333 C6.31408696,3.47223333 5.27869565,4.18312222 5.022,5.20823333 C4.824,5.99923333 5.05956522,6.6549 5.68956522,7.17056667 C6.22408696,7.60767778 6.85173913,7.87523333 7.4786087,8.14356667 C8.43808696,8.55423333 9.41165217,8.93378889 10.296,9.49845556 C11.5904348,10.3260111 12.4348696,11.4615667 12.7064348,12.9867889 C12.8386957,13.7272333 12.8410435,14.4723444 12.762,15.2174556 C12.6446087,16.3335667 12.3190435,17.3835667 11.6898261,18.3246778 C10.7593043,19.7176778 9.44217391,20.5320111 7.80182609,20.8516778 C6.75469565,21.0554556 5.70991304,21.0601222 4.67295652,20.7956778 C3.258,20.4347889 2.12086957,19.6391222 1.19504348,18.5377889 C0.833478261,18.1076778 0.518086957,17.6394556 0.174521739,17.1797889 C1.02756522,16.3499 1.85165217,15.5480111 2.66243478,14.7585667 C2.86904348,15.1303444 3.04434783,15.5091222 3.27521739,15.8497889 C3.82617391,16.6586778 4.55243478,17.2560111 5.52208696,17.5041222 C7.09043478,17.9062333 8.388,17.0382333 8.73547826,15.5036778 C8.892,14.8114556 8.86617391,14.1293444 8.50930435,13.4915667 C8.18452174,12.9129 7.67426087,12.5271222 7.08652174,12.2564556 C6.39626087,11.9375667 5.68330435,11.6684556 4.98443478,11.3690111 C4.02573913,10.9575667 3.10930435,10.4769 2.35173913,9.74267778 C1.58713043,9.00145556 1.15278261,8.09301111 1.02208696,7.0469 C0.820956522,5.42601111 1.12852174,3.91323333 2.10286957,2.57623333 C3.03573913,1.29601111 4.30669565,0.546233333 5.88208696,0.3129 C6.0566087,0.287233333 6.23269565,0.265455556 6.408,0.241344444" id="Fill-7" fill="#183962" mask="url(#mask-2)"></path>
                    </g>
                </g>
                <g id="Group-26" transform="translate(0.500000, 0.000000)">
                    <g id="Group-13" transform="translate(0.000000, 2.322222)">
                        <mask id="mask-4" fill="white">
                            <use xlink:href="#path-3"></use>
                        </mask>
                        <g id="Clip-12"></g>
                        <path d="M-7.88546256e-05,18.0541167 C0.312974009,17.4673685 0.64968326,16.845013 0.977718502,16.2667796 C2.34900044,13.8501204 4.01914141,11.65175 5.98892996,9.67321667 C9.06426035,6.58620926 12.6355863,4.22373519 16.7060621,2.58656852 C18.6947758,1.78695 20.7489388,1.20097593 22.8614542,0.819357407 C24.503996,0.522112963 26.1615203,0.346398148 27.8324498,0.324724074 C28.2275115,0.319305556 28.6304586,0.306146296 29.0160577,0.373490741 C29.8787273,0.525209259 30.5245467,1.31708704 30.5600313,2.19643519 C30.5963044,3.09900556 30.0088374,3.94197222 29.1485335,4.16026111 C28.8370577,4.23999074 28.5003485,4.23844259 28.1738903,4.24618333 C21.6518242,4.40332037 15.868626,6.50415741 10.8511062,10.6028796 C8.33327797,12.6588204 6.15137048,15.2604833 4.52302247,18.0502463 L4.35585066,18.0541167 C2.99008855,18.0479241 1.62511498,18.0502463 0.259352863,18.0510204 C0.185229515,18.0510204 -7.88546256e-05,18.0541167 -7.88546256e-05,18.0541167" id="Fill-11" fill="#183962" mask="url(#mask-4)"></path>
                    </g>
                    <polyline id="Fill-14" fill="#183962" points="74.3227714 8.41673963 74.3227714 11.7398396 68.1555511 11.7398396 68.1555511 17.0484396 74.5538154 17.0484396 74.5538154 20.3668952 64.2601326 20.3668952 64.2601326 0.780498889 74.5553925 0.780498889 74.5553925 4.09276185 68.1579167 4.09276185 68.1579167 8.41673963"></polyline>
                    <path d="M53.3708608,4.10081222 L49.3571604,4.10081222 L49.3571604,0.783130741 L61.2752485,0.783130741 L61.2752485,4.08920111 C61.2074335,4.09307148 61.1356758,4.09926407 61.0639181,4.09926407 C59.8850414,4.10003815 58.7053762,4.09926407 57.5264996,4.10003815 C57.2173894,4.10003815 57.2520855,4.07139741 57.2520855,4.37870481 C57.2512969,9.58744926 57.2520855,14.7969678 57.2520855,20.0057122 L57.2520855,20.3672048 L53.3708608,20.3672048" id="Fill-16" fill="#183962"></path>
                    <path d="M6.76801366,20.3725844 C7.05425595,19.9545459 7.33103568,19.5311274 7.61412379,19.1409941 C10.5656524,15.0863941 14.3885247,12.1131756 19.0961458,10.2430126 C20.8585467,9.54324963 22.6848198,9.05867926 24.5623485,8.76685333 C25.8303308,8.56946444 27.1093529,8.48122 28.3938947,8.45257926 C29.1761326,8.43477556 29.7943529,8.69718667 30.2217449,9.32728296 C30.6633308,9.97905333 30.69093,10.6811385 30.3092736,11.3677422 C29.9410225,12.0280274 29.3496128,12.3771348 28.5799916,12.3848756 C26.472996,12.4065496 24.4077934,12.692183 22.3883264,13.2905422 C19.6694189,14.0963533 17.2075775,15.3789941 14.9988595,17.1291756 C13.8215599,18.0603867 12.6198154,19.2199496 11.6617317,20.3679015 L11.5907626,20.3686756 C10.0144586,20.3740941 8.43815463,20.3725844 6.86263921,20.3717719 C6.85081101,20.3717719 6.76801366,20.3725844 6.76801366,20.3725844" id="Fill-18" fill="#183962"></path>
                    <mask id="mask-6" fill="white">
                        <use xlink:href="#path-5"></use>
                    </mask>
                    <g id="Clip-21"></g>
                    <polygon id="Fill-20" fill="#183962" mask="url(#mask-6)" points="78.4800661 20.3744037 82.3526167 20.3744037 82.3526167 0.785685185 78.4800661 0.785685185"></polygon>
                    <path d="M14.2423282,20.37332 C14.5545925,20.0613681 14.8329493,19.7664459 15.1294427,19.4939719 C17.1481211,17.6416126 19.4625044,16.2645348 22.0694383,15.3642867 C23.5235176,14.8611385 25.0154471,14.5228681 26.5523238,14.3866311 C27.2186454,14.3270274 27.8881211,14.2844533 28.5544427,14.2573607 C29.6828524,14.2116904 30.6614383,15.255916 30.5557731,16.3775496 C30.4579934,17.4210015 29.6315969,18.1826904 28.5867731,18.1981719 C25.8197643,18.2376496 22.9533987,19.0210126 20.5428128,20.3679015 C18.576967,20.3756422 16.4502577,20.37332 14.4836233,20.37332" id="Fill-22" fill="#183962" mask="url(#mask-6)"></path>
                    <path d="M178.819738,0.779957037 C178.506685,1.36670519 178.169976,1.98906074 177.841941,2.56729407 C176.470659,4.98472741 174.79973,7.1823237 172.829941,9.16085704 C169.755399,12.2486385 166.184073,14.6111126 162.113597,16.2475052 C160.124884,17.0471237 158.070721,17.6330978 155.958205,18.0147163 C154.315663,18.3119607 152.657351,18.4876756 150.986421,18.5101237 C150.591359,18.5147681 150.188412,18.5279274 149.802813,18.460583 C148.940144,18.3088644 148.294324,17.5169867 148.25884,16.6376385 C148.222567,15.7350681 148.810033,14.8921015 149.669549,14.6738126 C149.982602,14.594857 150.318522,14.5956311 150.645769,14.5878904 C157.167835,14.4307533 162.951033,12.3299163 167.967765,8.23119407 C170.486381,6.17525333 172.668289,3.57359037 174.296637,0.783827407 L174.463809,0.779957037 C175.828782,0.78614963 177.193756,0.783827407 178.560307,0.783053333 C178.63443,0.783053333 178.819738,0.779957037 178.819738,0.779957037" id="Fill-23" fill="#183962" mask="url(#mask-6)"></path>
                    <path d="M172.051646,0.783711561 C171.765404,1.20175 171.487835,1.62516852 171.204747,2.01530185 C168.254007,6.06990185 164.430346,9.04312037 159.722725,10.9132833 C157.961113,11.6138204 156.134051,12.0976167 154.257311,12.3894426 C152.98854,12.5868315 151.709518,12.6750759 150.424188,12.7037167 C149.643527,12.7215204 149.025307,12.4598833 148.597915,11.829013 C148.154752,11.1772426 148.127941,10.4751574 148.510386,9.7885537 C148.877848,9.12826852 149.469258,8.77916111 150.239668,8.77142037 C152.346663,8.7497463 154.411866,8.46411296 156.429756,7.8657537 C159.149452,7.05994259 161.612082,5.77730185 163.8208,4.02712037 C164.9981,3.09590926 166.199056,1.9363463 167.157928,0.788394444 L167.228897,0.78762037 C168.805201,0.782201852 170.381505,0.783711561 171.95702,0.784524074 C171.968848,0.784524074 172.051646,0.783711561 172.051646,0.783711561" id="Fill-24" fill="#183962" mask="url(#mask-6)"></path>
                    <path d="M164.57741,0.782975926 C164.264357,1.09492778 163.986789,1.38985 163.689507,1.66309815 C161.670829,3.51545741 159.355657,4.89176111 156.7503,5.79278333 C155.296221,6.29515741 153.802714,6.63342778 152.265837,6.76966481 C151.599516,6.82926852 150.931617,6.87184259 150.26293,6.89893519 C149.135309,6.94460556 148.157511,5.90037963 148.263177,4.7787463 C148.360956,3.73529444 149.188141,2.97360556 150.232177,2.95889815 C152.999185,2.9186463 155.86634,2.13528333 158.275348,0.788394444 C160.241983,0.780653704 162.369481,0.782975926 164.336115,0.782975926" id="Fill-25" fill="#183962" mask="url(#mask-6)"></path>
                </g>
            </g>
        </g>
    </g>
</svg>