<?xml version="1.0" encoding="UTF-8"?>
<!-- Generator: Adobe Illustrator 25.4.1, SVG Export Plug-In . SVG Version: 6.00 Build 0)  -->
<svg xmlns="http://www.w3.org/2000/svg" xmlns:xlink="http://www.w3.org/1999/xlink" version="1.1" id="Ebene_2_00000007424819579908292320000011371228970495006351_" x="0px" y="0px" viewBox="0 0 400 400" style="enable-background:new 0 0 400 400;" xml:space="preserve">
<style type="text/css">
	.st0{fill:#15477B;}
	.st1{fill:url(#SVGID_1_);}
	.st2{fill:#FFFFFF;}
	.st3{fill:#9F901D;}
</style>
<g>
	<polygon class="st0" points="0,200 0,0 200,0 400,0 400,200 400,400 200,400 0,400  "></polygon>
	<g>
		<linearGradient id="SVGID_1_" gradientUnits="userSpaceOnUse" x1="105.1249" y1="184.2091" x2="340.1606" y2="184.2091">
			<stop offset="0" style="stop-color:#FFFFFF"></stop>
			<stop offset="0.2592" style="stop-color:#FEFEFD"></stop>
			<stop offset="0.3583" style="stop-color:#FBFBF6"></stop>
			<stop offset="0.4301" style="stop-color:#F6F5EA"></stop>
			<stop offset="0.4886" style="stop-color:#EFECD9"></stop>
			<stop offset="0.5391" style="stop-color:#E5E1C3"></stop>
			<stop offset="0.584" style="stop-color:#DAD4A7"></stop>
			<stop offset="0.6248" style="stop-color:#CCC486"></stop>
			<stop offset="0.6624" style="stop-color:#BBB160"></stop>
			<stop offset="0.696" style="stop-color:#AA9C36"></stop>
			<stop offset="0.7135" style="stop-color:#9F901D"></stop>
			<stop offset="1" style="stop-color:#9F901D"></stop>
		</linearGradient>
		<path class="st1" d="M276.7,166.2l-31.9,76.1h-27.3l32.1-76.1h-38.5v76.1h-24.6v-76.4H170v76.4h-20.3l-3.1-10.4    c-1.9,2.5-9.3,11.8-20.1,11.5c-18.5,0-21.4-9.6-21.4-26.7v-69.9h23.4v66.8c0,7.7,5.8,7.7,8.4,7.7c3.2,0,7.6-2.8,9.7-4.2v-70.2    h39.7v-12.9l24.6-8.8l0,21.7h65.7V166.2z M315.1,182.1l-12-0.3l0.1-15.9h31.9l-0.1-19.2h-52.6v52.1h21.4c4.4,0,14.3,0,14.3,8.3    c0,13.3-12.1,14.2-22.9,14.6c-10.8,0.4-31.1-1.3-31.1-1.3l-9.4,21.7c0,0,26.9,1.6,41.7,0.8c14.8-0.8,23.7-1.9,32.1-9    c10-8.3,11.7-18.1,11.7-28.2C340.2,185.2,323.1,182.1,315.1,182.1z"></path>
		<g>
			<path class="st2" d="M361.8,98.3c-0.4-0.6-0.6-0.7-1.3-1.1l-32.8-15.7c-1.1-0.5-2.2,0.7-1.5,1.8l8.4,12.3l-9.4,5.1     c-2.8,1.5-7.1,1.2-9.8-1.2c-27.1-36.2-70.2-59.7-119-59.7c-46.1,0-87.4,21-114.7,54l21.2,17.3c22.3-26.8,55.8-43.9,93.4-43.9     c45.9,0,85.8,25.4,106.4,63.1h0l0,0.1c3.9,7.1,13.8,9.5,20.2,6l26-14.2l0,0l6,14c0.4,0.9,1.9,1,2.3-0.3L362,100     C362.1,99.3,362.2,99,361.8,98.3z"></path>
			<path class="st2" d="M174.2,307.6c-56.4-10.5-99-59.9-99-119.2c0-21.1,5.4-41,14.9-58.3l0,0c3.9-7.2,0.4-16.7-6-20.2L58.2,95.8     l8.5-12.7c0.5-0.8-0.2-2-1.5-1.7L32.5,96.9c-0.6,0.3-0.9,0.5-1.3,1.1c-0.4,0.7-0.3,1-0.2,1.7l4.6,36c0.2,1.2,1.7,1.5,2.3,0.3     l5.8-13.7l9.5,5.2c2.7,1.5,4.7,5,4.3,8.4c-6.2,16.3-9.5,34-9.5,52.5c0,72.7,52.2,133.2,121.2,146.1L174.2,307.6z"></path>
			<path class="st2" d="M299.1,253c-21.4,34-59.3,56.6-102.4,56.7v0c-8.1,0-14.9,7.6-14.9,14.9l0,29.6h0l-15.2-1.4     c-1-0.1-1.7,1.1-0.8,2.1l29.3,21.3c0.6,0.4,0.8,0.6,1.6,0.6c0.8,0,1-0.2,1.5-0.6l29.5-21.3c1-0.8,0.5-2.2-0.8-2.2l-14.8,1.5     v-10.8c0-3.3,2.5-7.1,6.1-8.1c0.7-0.1,1.3-0.2,1.9-0.2c0.1,0,0.1,0,0.1,0h0c48.6-7.8,89.3-39.2,110.1-82.1c0,0,0,0,0,0L299.1,253     C299.1,253,299.1,253,299.1,253z"></path>
		</g>
		<path class="st3" d="M382.5,230.7h-34.6l0.3,12h4v-6.9h30.3V230.7L382.5,230.7z M383,216.6c0-10.2-5.6-15.9-20-15.9    c-10.3,0-15.5,4.7-15.5,12.2c0,6.5,4,11.6,11.5,11.6c7.4,0,10.9-4,10.9-10.9c0-2.2-0.4-4.1-0.7-5.2l-4.1,0    c0.3,1.3,0.6,2.9,0.6,4.6c0,3.8-1.6,6.4-7.2,6.4c-3.9,0-6.8-2.2-6.8-6c0-5.3,4.4-7.4,11.2-7.3c9.1,0,15.6,2,15.6,10.6    c0,1.8-0.3,3.7-0.5,4.4l4.1,1.1C382.6,220.8,383,219,383,216.6L383,216.6z M373.9,170.4h-4.3v5.6h-21.7v7.3l21.7,12.9h4.3V181h8.6    v-5.1h-8.6V170.4L373.9,170.4z M369.6,181v10.2L352.1,181H369.6L369.6,181z M351.8,146.3h-3.9v21.6h4.4v-16.6l29.3,14.6l1.4-4.4    L351.8,146.3L351.8,146.3z"></path>
	</g>
</g>
</svg>
