<?xml version="1.0" encoding="UTF-8" standalone="no"?>
<svg width="120px" height="30px" viewBox="0 0 120 30" version="1.1" xmlns="http://www.w3.org/2000/svg">
    <!-- Generator: Sketch 3.8.3 (29802) - http://www.bohemiancoding.com/sketch -->
    <title>footer-logo-migros-service</title>
    <desc>Created with Sketch.</desc>
    <defs></defs>
    <g id="HEADERS" stroke="none" stroke-width="1" fill="none" fill-rule="evenodd">
        <g id="Assets-Logo-Footer" transform="translate(-96.000000, -55.000000)">
            <g id="Group-25" transform="translate(96.000000, 55.000000)">
                <g id="Mele-Logo">
                    <g id="Group">
                        <polygon id="Fill-1" fill="#001F84" points="29.7744361 30 120 30 120 0 29.7744361 0"></polygon>
                        <polygon id="Fill-2" fill="#000000" points="0 30 30.2255639 30 30.2255639 0 0 0"></polygon>
                        <path d="M15.0339248,7.47026866 L17.0964812,7.47026866 L17.0964812,8.22429851 C17.5155789,7.70041791 18.1972331,7.30056716 19.1590376,7.30056716 C20.0743759,7.30056716 20.8489624,7.68519403 21.2838496,8.33176119 C21.7638496,7.71608955 22.6318195,7.30056716 23.6243008,7.30056716 C25.0661053,7.30056716 26.2913684,8.08504478 26.2913684,9.87026866 L26.2913684,14.9031045 L24.2143759,14.9031045 L24.2143759,10.5007164 C24.2143759,9.40862687 23.7483609,8.96220896 23.0193383,8.96220896 C22.3376842,8.96220896 21.701594,9.42385075 21.701594,10.5625075 L21.701594,14.9031045 L19.6236992,14.9031045 L19.6236992,10.5007164 C19.6236992,9.36295522 19.1125714,8.96220896 18.430015,8.96220896 C17.6856541,8.96220896 17.1122707,9.45564179 17.1122707,10.6556418 L17.1122707,14.9031045 L15.0339248,14.9031045 L15.0339248,7.47026866 L15.0339248,7.47026866 Z" id="Fill-3" fill="#FFFFFF"></path>
                        <path d="M33.5926917,10.3785224 L36.8178045,10.3785224 C36.6937444,9.37822388 36.0576541,8.88568657 35.2050226,8.88568657 C34.3681805,8.88568657 33.7329925,9.42389552 33.5926917,10.3785224 L33.5926917,10.3785224 Z M33.562015,11.7325522 C33.6238195,12.9482239 34.2752481,13.441209 35.174797,13.441209 C35.9344962,13.441209 36.4144962,13.1483731 36.756,12.6253881 L38.7558496,12.8564328 C38.213594,14.0716567 36.9581053,15.0880746 35.0656241,15.0880746 C32.6782556,15.0880746 31.468782,13.5486716 31.468782,11.1938955 C31.468782,8.70076119 33.1271278,7.2849403 35.2050226,7.2849403 C37.3447218,7.2849403 38.9417143,8.70076119 38.9417143,11.2556866 C38.9417143,11.4406119 38.9268271,11.6250896 38.9110376,11.7325522 L33.562015,11.7325522 Z" id="Fill-5" fill="#FFFFFF"></path>
                        <polygon id="Fill-7" fill="#FFFFFF" points="40.8094737 14.9029254 42.8404511 14.9029254 42.8404511 3.73352239 40.8094737 3.73352239"></polygon>
                        <path d="M46.794812,10.3785224 L50.0190226,10.3785224 C49.8949624,9.37822388 49.2597744,8.88568657 48.4066917,8.88568657 C47.5703008,8.88568657 46.9342105,9.42389552 46.794812,10.3785224 L46.794812,10.3785224 Z M46.7632331,11.7325522 C46.8250376,12.9482239 47.4764662,13.441209 48.376015,13.441209 C49.1352632,13.441209 49.6157143,13.1483731 49.957218,12.6253881 L51.9575188,12.8564328 C51.414812,14.0716567 50.1593233,15.0880746 48.2677444,15.0880746 C45.8794737,15.0880746 44.67,13.5486716 44.67,11.1938955 C44.67,8.70076119 46.3292481,7.2849403 48.4066917,7.2849403 C50.5468421,7.2849403 52.1438346,8.70076119 52.1438346,11.2556866 C52.1438346,11.4406119 52.1289474,11.6250896 52.1131579,11.7325522 L46.7632331,11.7325522 Z" id="Fill-9" fill="#FFFFFF"></path>
                        <path d="M58.9638045,10.0702388 C58.8090677,9.27053731 58.2203459,8.90068657 57.4606466,8.90068657 C56.374782,8.90068657 55.817188,9.90098507 55.817188,11.209791 C55.817188,12.5024776 56.3905714,13.4409851 57.4606466,13.4409851 C58.2510226,13.4409851 58.9335789,12.9641194 59.0418496,12.0712836 L61.0579398,12.0712836 C60.8716241,13.5945672 59.7086165,15.0878507 57.4606466,15.0878507 C55.0570376,15.0878507 53.7235038,13.5327761 53.7235038,11.209791 C53.7235038,8.73232836 55.2893684,7.28471642 57.4606466,7.28471642 C59.5218496,7.28471642 60.8874135,8.40814925 61.0114737,10.0702388 L58.9638045,10.0702388 Z" id="Fill-10" fill="#FFFFFF"></path>
                        <path d="M65.453594,7.47026866 L66.9725414,7.47026866 L66.9725414,8.93176119 L65.453594,8.93176119 L65.453594,12.502209 C65.453594,13.164 65.623218,13.394597 66.3829173,13.394597 C66.6932932,13.394597 66.9567519,13.3793731 66.9567519,13.3793731 L66.9567519,14.9496716 C66.554797,14.9796716 66.088782,14.995791 65.6390075,14.995791 C64.0117895,14.995791 63.4068271,14.395791 63.4068271,13.1796716 L63.4068271,8.93176119 L62.1973534,8.93176119 L62.1973534,7.47026866 L63.4068271,7.47026866 L63.4068271,4.82220896 L65.453594,4.82220896 L65.453594,7.47026866 Z" id="Fill-11" fill="#FFFFFF"></path>
                        <path d="M73.7073835,9.17820896 C73.6293383,9.16298507 73.3816692,9.14731343 73.1182105,9.14731343 C72.7306917,9.14731343 72.3282857,9.20865672 72.0179098,9.36268657 C71.3669323,9.67119403 71.0403158,10.1623881 71.0403158,11.2714925 L71.0403158,14.9028358 L69.0251278,14.9028358 L69.0251278,7.47044776 L71.0254286,7.47044776 L71.0254286,8.43940299 C71.3506917,7.63835821 72.3282857,7.33119403 73.1028722,7.33119403 C73.366782,7.33119403 73.5377594,7.34686567 73.7073835,7.37686567 L73.7073835,9.17820896 Z" id="Fill-12" fill="#FFFFFF"></path>
                        <path d="M76.6661504,11.1940299 C76.6661504,12.5332836 77.2562256,13.4565672 78.4656992,13.4565672 C79.6129173,13.4565672 80.233218,12.5637313 80.233218,11.2097015 C80.233218,9.77865672 79.6129173,8.91626866 78.4503609,8.91626866 C77.2864511,8.91626866 76.6661504,9.83955224 76.6661504,11.1940299 M82.3264511,11.1940299 C82.3264511,13.3795522 80.9004361,15.0877612 78.4503609,15.0877612 C75.9989323,15.0877612 74.5738195,13.4252239 74.5738195,11.2097015 C74.5738195,9.10119403 75.9989323,7.28507463 78.4345714,7.28507463 C80.9153233,7.28507463 82.3264511,8.96238806 82.3264511,11.1940299" id="Fill-13" fill="#FFFFFF"></path>
                        <path d="M84.1621805,7.47026866 L86.2242857,7.47026866 L86.2242857,8.22429851 C86.6429323,7.70041791 87.4811278,7.28489552 88.3806767,7.28489552 C89.6519549,7.28489552 91.1086466,7.93101493 91.1086466,9.9320597 L91.1086466,14.9031045 L89.0316541,14.9031045 L89.0316541,10.5625075 C89.0316541,9.36295522 88.5660902,8.96220896 87.6981203,8.96220896 C86.7985714,8.96220896 86.2405263,9.45564179 86.2405263,10.6556418 L86.2405263,14.9031045 L84.1621805,14.9031045 L84.1621805,7.47026866 Z" id="Fill-14" fill="#FFFFFF"></path>
                        <path d="M93.2553383,14.9029254 L95.2863158,14.9029254 L95.2863158,7.47008955 L93.2553383,7.47008955 L93.2553383,14.9029254 Z M93.2553383,5.90785075 L95.2863158,5.90785075 L95.2863158,4.03128358 L93.2553383,4.03128358 L93.2553383,5.90785075 Z" id="Fill-15" fill="#FFFFFF"></path>
                        <path d="M102.330677,10.0702388 C102.175489,9.27053731 101.586767,8.90068657 100.826617,8.90068657 C99.7416541,8.90068657 99.1827068,9.90098507 99.1827068,11.209791 C99.1827068,12.5024776 99.7569925,13.4409851 100.826617,13.4409851 C101.617444,13.4409851 102.3,12.9641194 102.408271,12.0712836 L104.42391,12.0712836 C104.238496,13.5945672 103.075038,15.0878507 100.826617,15.0878507 C98.4234586,15.0878507 97.0899248,13.5327761 97.0899248,11.209791 C97.0899248,8.73232836 98.6557895,7.28471642 100.826617,7.28471642 C102.888722,7.28471642 104.253835,8.40814925 104.377895,10.0702388 L102.330677,10.0702388 Z" id="Fill-16" fill="#FFFFFF"></path>
                        <path d="M107.749038,12.4865821 C107.872195,13.1953881 108.354,13.594791 109.221068,13.594791 C110.07415,13.594791 110.570391,13.2415075 110.570391,12.7789701 C110.570391,12.4100149 110.229789,12.1794179 109.625278,12.0558358 L108.368887,11.8100149 C106.662722,11.4710597 105.933699,10.7792687 105.933699,9.62359701 C105.933699,8.40837313 106.942421,7.2849403 109.174602,7.2849403 C111.083323,7.2849403 112.245429,8.17777612 112.508436,9.43956716 L110.539263,9.63971642 C110.400767,9.0088209 109.82603,8.74643284 109.174602,8.74643284 C108.523624,8.74643284 108.058511,9.02404478 108.058511,9.47046269 C108.058511,9.85508955 108.275955,10.0243433 109.144827,10.2092687 L110.570391,10.5007612 C111.795654,10.7479254 112.695203,11.4253881 112.695203,12.5792687 C112.695203,13.9332985 111.46994,15.0880746 109.221068,15.0880746 C107.097609,15.0880746 106.042872,14.0716567 105.764075,12.6715075 L107.749038,12.4865821 Z" id="Fill-17" fill="#FFFFFF"></path>
                        <polygon id="Fill-18" fill="#FF6600" points="83.8740902 25.3500896 83.8740902 21.9103881 82.3880752 25.3500896 81.5629624 25.3500896 80.1022105 21.9103881 80.1022105 25.3500896 78.565218 25.3500896 78.565218 19.3935224 80.6201053 19.3935224 82.0325865 22.7571045 83.5109323 19.3935224 85.4083759 19.3935224 85.4083759 25.3500896"></polygon>
                        <path d="M86.5905113,25.3500896 L86.5905113,19.3935224 L87.9032932,19.3935224 C88.0178797,19.3935224 88.1329173,19.5081493 88.1329173,19.6312836 L88.1329173,25.3500896 L86.5905113,25.3500896 Z" id="Fill-19" fill="#FF6600"></path>
                        <path d="M92.3935038,21.9201493 L94.3432782,21.9201493 C94.4975639,21.9201493 94.5850827,22.0450746 94.5850827,22.1910448 L94.5850827,25.269403 C94.035609,25.391194 93.178015,25.4650746 92.5419248,25.4650746 C90.3029774,25.4650746 89.1228271,24.4070149 89.1228271,22.3638806 C89.1228271,20.5414925 90.3029774,19.278806 92.2703459,19.278806 C93.1360602,19.278806 93.894406,19.5080597 94.384782,19.8362687 L93.7802707,20.861194 C93.358015,20.6731343 92.7868872,20.5414925 92.3853835,20.5414925 C91.2548571,20.5414925 90.7256842,21.2856716 90.7256842,22.3638806 C90.7256842,23.5150746 91.3374135,24.2261194 92.4656842,24.2261194 C92.6745564,24.2261194 92.930797,24.2189552 93.1360602,24.1871642 L93.1360602,23.1371642 L92.3935038,23.1371642 L92.3935038,21.9201493 Z" id="Fill-20" fill="#FF6600"></path>
                        <path d="M98.0092782,20.5414478 L97.2545414,20.5414478 L97.2545414,22.0342836 L98.0092782,22.0342836 C98.4581504,22.0342836 98.8145414,21.7960746 98.8145414,21.2305522 C98.8145414,20.6556269 98.4581504,20.5414478 98.0092782,20.5414478 L98.0092782,20.5414478 Z M99.1461203,25.3499552 L98.4333383,23.7107015 C98.2885263,23.3762239 98.1870226,23.211 97.8784511,23.211 L97.2545414,23.211 L97.2545414,25.3499552 L95.7446165,25.3499552 L95.7446165,19.631597 C95.7446165,19.5080149 95.8822105,19.3938358 95.9801053,19.3938358 L98.110782,19.3938358 C99.2674737,19.3938358 100.25815,19.631597 100.25815,21.1145821 C100.25815,21.7790597 99.8873233,22.4587612 99.1939398,22.5962239 C99.5395038,22.7135373 99.8873233,23.1532388 100.077699,23.631 L100.763414,25.3499552 L99.1461203,25.3499552 Z" id="Fill-21" fill="#FF6600"></path>
                        <path d="M104.097293,20.5414478 C103.287068,20.5414478 102.71188,21.1145821 102.71188,22.3638358 C102.71188,23.631 103.287068,24.2032388 104.097293,24.2032388 C104.79203,24.2032388 105.360451,23.631 105.360451,22.3638358 C105.360451,21.1145821 104.79203,20.5414478 104.097293,20.5414478 M104.097293,25.4650299 C102.13218,25.4650299 101.092331,24.0881642 101.092331,22.3638358 C101.092331,20.6556269 102.13218,19.2787612 104.097293,19.2787612 C105.936992,19.2787612 106.979098,20.6556269 106.979098,22.3638358 C106.979098,24.0881642 105.936992,25.4650299 104.097293,25.4650299" id="Fill-22" fill="#FF6600"></path>
                        <path d="M109.933308,25.4650746 C108.918722,25.4650746 107.976767,25.1041791 107.555865,24.8176119 L108.240226,23.6135821 C108.621429,23.8423881 109.364436,24.1947761 110.048797,24.1947761 C110.436767,24.1947761 110.925789,24.1208955 110.925789,23.6932836 C110.925789,23.2925373 110.379023,23.1698507 109.660827,22.9665672 C108.795113,22.719403 107.787293,22.3777612 107.787293,21.2216418 C107.787293,19.9750746 108.90203,19.278806 110.354211,19.278806 C111.312857,19.278806 112.054511,19.6159701 112.43391,19.9750746 L111.601579,20.9171642 C111.188346,20.6731343 110.768346,20.4823881 110.296466,20.4823881 C109.727143,20.4823881 109.40594,20.6968657 109.40594,21.0085075 C109.40594,21.3174627 109.818271,21.4755224 110.337519,21.63 C111.254662,21.9107463 112.508346,22.198209 112.508346,23.3914925 C112.508346,24.620597 111.519023,25.4650746 109.933308,25.4650746" id="Fill-23" fill="#FF6600"></path>
                    </g>
                </g>
            </g>
        </g>
    </g>
</svg>