<?xml version="1.0" encoding="utf-8"?>
<!-- Generator: Adobe Illustrator 16.0.3, SVG Export Plug-In . SVG Version: 6.00 Build 0)  -->
<!DOCTYPE svg PUBLIC "-//W3C//DTD SVG 1.1//EN" "http://www.w3.org/Graphics/SVG/1.1/DTD/svg11.dtd">
<svg version="1.1" id="Warstwa_1" xmlns="http://www.w3.org/2000/svg" xmlns:xlink="http://www.w3.org/1999/xlink" x="0px" y="0px"
	 width="208px" height="208px" viewBox="0 0 208 208" enable-background="new 0 0 208 208" xml:space="preserve">
<g>
	<g>
		<path fill="#3C3C3C" d="M198,95.98c0-51.831-42.168-94-94-94c-51.831,0-94,42.168-94,94s42.169,94,94,94
			c9.958,0,19.761-1.579,29.18-4.655l31.31,19.922c0.807,0.515,1.729,0.773,2.655,0.773c0.818,0,1.637-0.203,2.382-0.61
			c1.582-0.87,2.564-2.532,2.564-4.337v-40.333C188.801,143.188,198,120.285,198,95.98z M162.196,192.061l-25.688-16.346
			c-0.084-0.053-0.176-0.083-0.261-0.13c-0.151-0.084-0.301-0.166-0.461-0.233c-0.145-0.062-0.29-0.111-0.436-0.158
			c-0.162-0.051-0.32-0.097-0.485-0.132c-0.146-0.03-0.292-0.052-0.441-0.069c-0.172-0.021-0.343-0.034-0.517-0.037
			c-0.146-0.001-0.291,0.007-0.436,0.018c-0.17,0.014-0.338,0.032-0.507,0.063c-0.164,0.03-0.326,0.075-0.488,0.121
			c-0.092,0.028-0.189,0.036-0.28,0.069c-9.062,3.223-18.548,4.857-28.196,4.857c-46.377,0-84.104-37.729-84.104-84.104
			c0-46.375,37.728-84.105,84.104-84.105s84.105,37.729,84.105,84.105c0,22.369-8.688,43.426-24.459,59.292c0,0,0,0-0.002,0
			c0,0.003-0.006,0.007-0.008,0.01c-0.029,0.029-0.049,0.064-0.075,0.093c-0.196,0.205-0.377,0.421-0.536,0.659
			c-0.081,0.124-0.14,0.258-0.21,0.389c-0.084,0.153-0.176,0.299-0.242,0.463c-0.067,0.161-0.105,0.331-0.154,0.499
			c-0.041,0.141-0.097,0.278-0.126,0.424c-0.051,0.265-0.069,0.533-0.079,0.801c-0.003,0.054-0.018,0.106-0.018,0.162V192.061z"/>
	</g>
	<g>
		<path fill="#3C3C3C" d="M155.947,71.103H52.053c-2.731,0-4.947-2.215-4.947-4.947s2.216-4.947,4.947-4.947h103.895
			c2.732,0,4.948,2.215,4.948,4.947S158.68,71.103,155.947,71.103z"/>
	</g>
	<g>
		<path fill="#3C3C3C" d="M155.947,101.198H52.053c-2.731,0-4.947-2.215-4.947-4.947s2.216-4.948,4.947-4.948h103.895
			c2.732,0,4.948,2.216,4.948,4.948S158.68,101.198,155.947,101.198z"/>
	</g>
	<g>
		<path fill="#3C3C3C" d="M155.947,131.295H52.053c-2.731,0-4.947-2.215-4.947-4.948c0-2.732,2.216-4.947,4.947-4.947h103.895
			c2.732,0,4.948,2.215,4.948,4.947C160.896,129.08,158.68,131.295,155.947,131.295z"/>
	</g>
</g>
</svg>
