<svg id="Layer_1" data-name="Layer 1" xmlns="http://www.w3.org/2000/svg" viewBox="0 0 1133.44 182.34"><defs><style>.cls-1{fill:#393a39}</style></defs><path class="cls-1" d="M199.32 11l-36.21 49.2h197.36c10 0 9.85 3.79 5 10.4S352.2 89 347.16 95.8c-2.56 3.46-7.19 9.75 8.15 9.75H436s13-17.7 23.91-32.5c14.84-20.13 1.29-62-51.75-62z"/><path class="cls-1" d="M148.46 171.31l72.73-98.83h90.26c10 0 9.84 3.79 5 10.4S303 101.13 298 107.94c-2.56 3.46-7.19 9.76 8.15 9.76h120.92c-10.05 13.78-42.67 53.61-101.25 53.61zM565 117.69l-39.44 53.62h-104S460.95 117.7 461 117.7zm159.41-12.13H469.92l69.59-94.53h104.02l-39.89 54.2h46.43l39.91-54.2h104l-69.57 94.53zm-8.93 12.14L676 171.31H572s39.42-53.61 39.46-53.61zM0 138.84h153.28l-8.38 11.39H0v-11.39zm0-21.14h168.85l-8.39 11.38H0V117.7zM0 160h137.71l-8.33 11.31H0V160zm1133.44-9.77H980.75l8.38-11.39h144.31v11.39zm0 21.08l-168.21.02 8.33-11.33h159.88v11.31zm-128.76-53.61h128.76v11.38l-137.12.01 8.36-11.39zM938 11l-69.58 94.53H758.24S827.83 11 827.87 11zM749.31 117.7s-7.6 10.39-11.3 15.39c-13.07 17.66-1.52 38.23 41.12 38.23h167l39.46-53.61z"/></svg>