<?xml version="1.0" encoding="utf-8"?>
<!-- Generator: Adobe Illustrator 16.0.3, SVG Export Plug-In . SVG Version: 6.00 Build 0)  -->
<!DOCTYPE svg PUBLIC "-//W3C//DTD SVG 1.1//EN" "http://www.w3.org/Graphics/SVG/1.1/DTD/svg11.dtd">
<svg version="1.1" id="Warstwa_1" xmlns="http://www.w3.org/2000/svg" xmlns:xlink="http://www.w3.org/1999/xlink" x="0px" y="0px"
	 width="208px" height="208px" viewBox="0 0 208 208" enable-background="new 0 0 208 208" xml:space="preserve">
<g>
	<rect fill="#C8DED6" width="208" height="208" />
</g>
<path fill="#3C3C3C" d="M208,37.137c0-0.324-0.035-0.648-0.1-0.968c-0.037-0.191-0.106-0.369-0.167-0.551
	c-0.038-0.126-0.063-0.253-0.116-0.376c-0.254-0.61-0.624-1.158-1.088-1.616c-0.109-0.108-0.232-0.191-0.349-0.287
	c-0.13-0.109-0.257-0.225-0.396-0.319c-0.13-0.087-0.272-0.148-0.411-0.222c-0.145-0.079-0.287-0.166-0.442-0.23
	c-0.143-0.059-0.292-0.092-0.44-0.137c-0.159-0.049-0.314-0.11-0.48-0.143c-0.295-0.058-0.596-0.086-0.895-0.089
	c-0.025-0.001-0.044-0.007-0.068-0.007H4.951c-0.324,0-0.647,0.034-0.967,0.098c-0.15,0.029-0.287,0.084-0.433,0.127
	c-0.165,0.048-0.331,0.087-0.489,0.152c-0.143,0.059-0.272,0.14-0.408,0.211c-0.147,0.079-0.3,0.147-0.442,0.241
	c-0.133,0.089-0.249,0.199-0.375,0.301c-0.123,0.102-0.254,0.191-0.367,0.305c-0.464,0.458-0.835,1.006-1.089,1.615
	c-0.051,0.121-0.074,0.247-0.115,0.369c-0.061,0.185-0.131,0.365-0.17,0.559C0.033,36.489,0,36.814,0,37.137
	c0,0.002,0,0.004,0,0.006v133.714c0,2.735,2.217,4.953,4.951,4.953h198.096c2.734,0,4.953-2.217,4.953-4.953V37.143
	C208,37.141,208,37.139,208,37.137z M104,98.025l-82.859-55.93h165.717L104,98.025z M9.904,165.905V46.461l91.324,61.644
	c0.064,0.043,0.14,0.058,0.205,0.098c0.278,0.168,0.566,0.301,0.868,0.411c0.13,0.048,0.257,0.11,0.392,0.147
	c0.411,0.113,0.832,0.18,1.258,0.185c0.014,0,0.029,0.006,0.043,0.006c0.003,0,0.003-0.001,0.006-0.001
	c0.002,0,0.002,0.001,0.004,0.001c0.015,0,0.029-0.006,0.044-0.006c0.425-0.005,0.847-0.072,1.257-0.185
	c0.136-0.038,0.264-0.099,0.396-0.148c0.301-0.11,0.588-0.242,0.863-0.41c0.066-0.04,0.141-0.054,0.206-0.098l91.324-61.644v119.443
	H9.904z"/>
</svg>
