<?xml version="1.0" encoding="utf-8"?>
<!-- Generator: Adobe Illustrator 16.0.3, SVG Export Plug-In . SVG Version: 6.00 Build 0)  -->
<!DOCTYPE svg PUBLIC "-//W3C//DTD SVG 1.1//EN" "http://www.w3.org/Graphics/SVG/1.1/DTD/svg11.dtd">
<svg version="1.1" id="Warstwa_1" xmlns="http://www.w3.org/2000/svg" xmlns:xlink="http://www.w3.org/1999/xlink" x="0px" y="0px"
	 width="208px" height="208px" viewBox="0 0 208 208" enable-background="new 0 0 208 208" xml:space="preserve">
<g>
	<g>
		<path fill="#3C3C3C" d="M104,121.751c-19.126,0-34.686-15.56-34.686-34.687S84.874,52.378,104,52.378s34.686,15.56,34.686,34.687
			S123.126,121.751,104,121.751z M104,62.289c-13.66,0-24.775,11.114-24.775,24.776S90.34,111.84,104,111.84
			s24.775-11.114,24.775-24.776S117.66,62.289,104,62.289z"/>
	</g>
	<g>
		<path fill="#3C3C3C" d="M104,205.581c-1.099,0-2.194-0.363-3.1-1.09C48.629,162.562,21,121.999,21,87.186
			c0-61.753,50.909-84.767,83-84.767s83,23.013,83,84.767c0,35.31-26.883,74.778-79.9,117.306
			C106.194,205.218,105.099,205.581,104,205.581z M104,12.329c-28.258,0-73.088,20.323-73.088,74.856
			c0,31.039,25.252,68.008,73.088,107.066c47.836-39.058,73.088-76.027,73.088-107.066C177.088,32.652,132.258,12.329,104,12.329z"
			/>
	</g>
</g>
</svg>
