<svg xmlns="http://www.w3.org/2000/svg" width="139" height="48" viewBox="0 0 139 48">
	<g fill="none" fill-rule="nonzero">
		<path fill="#FFF" d="M137.175 32.805H22.546l.117 8.983-12.36-8.983H1.79V5.741h135.385z"/>
		<g fill="#000">
			<path d="M9.675 17.512c0-.568-.046-1.136-.062-1.689h1.247l.046 1.167h.03c.417-.89 1.078-1.274 1.94-1.274.831 0 1.447.43 1.847 1.227.416-.767 1.016-1.227 1.908-1.227 1.355 0 2.278.783 2.278 2.501v5.433h-1.292V18.28c0-.998-.431-1.458-1.2-1.458-.955 0-1.478.583-1.478 1.995v4.834h-1.293V18.28c0-.998-.431-1.458-1.2-1.458-.955 0-1.478.583-1.478 1.995v4.834H9.675v-6.138zM22.881 12.6v1.535h-1.416V12.6h1.416zm-1.354 3.223h1.293v7.827h-1.293v-7.827zM31.085 23.988c0 2.164-1.632 3.07-3.355 3.07-.662 0-1.724-.246-2.294-.476l.062-1.305c.554.369 1.447.676 2.155.676 1.585 0 2.2-.937 2.2-2.287v-1.228h-.03c-.508.89-1.2 1.32-2.063 1.32-1.616 0-2.709-1.32-2.709-4.021 0-2.701 1.093-4.021 2.848-4.021.785 0 1.493.491 1.924 1.243h.03l.047-1.136h1.246c-.015.46-.061.952-.061 1.428v6.737zm-3.017-1.274c1.185 0 1.724-1.012 1.724-2.977 0-1.965-.539-2.978-1.724-2.978s-1.724 1.013-1.724 2.978c0 1.965.54 2.977 1.724 2.977zM33.456 17.512c0-.568-.046-1.136-.062-1.689h1.247l.046 1.228h.031c.416-.951 1.078-1.335 2.232-1.335v1.274a2.555 2.555 0 0 0-.493-.046c-1 0-1.708.86-1.708 2.563v4.143h-1.293v-6.138zM40.92 15.716c2.079 0 3.156 1.565 3.156 4.021s-1.077 4.02-3.155 4.02-3.155-1.564-3.155-4.02c0-2.456 1.077-4.021 3.155-4.021zm0 6.998c1.232 0 1.802-1.012 1.802-2.977 0-1.965-.57-2.978-1.801-2.978-1.232 0-1.801 1.013-1.801 2.978 0 1.965.57 2.977 1.8 2.977zM45.847 22.131c.585.353 1.2.583 1.847.583.985 0 1.492-.506 1.492-1.105 0-.537-.277-.905-1-1.227l-.862-.384c-1.124-.507-1.54-1.013-1.54-2.01 0-1.29 1.001-2.272 2.525-2.272.646 0 1.216.107 1.662.276l-.062 1.105a3.795 3.795 0 0 0-1.539-.338c-.846 0-1.292.46-1.292 1.075 0 .629.461.982 1.323 1.32l.462.184c.954.383 1.554 1.028 1.554 1.995 0 1.35-.723 2.425-2.524 2.425-.816 0-1.554-.169-2.124-.46l.078-1.167zM52.173 18.785h3.324v1.105h-3.324zM57.622 21.333c.43.215 1.123.568 2.093.568.754 0 1.139-.2 1.139-.568 0-.276-.216-.43-.893-.675l-.847-.307c-1.277-.46-1.647-1.243-1.647-2.256 0-1.412.909-2.625 3.34-2.625.832 0 1.647.17 2.232.369l-.092 1.995c-.508-.23-1.262-.491-1.97-.491-.54 0-.985.153-.985.583 0 .276.261.46.923.706l.923.338c1.001.368 1.601.844 1.601 2.24 0 1.658-1.062 2.625-3.432 2.625-.878 0-2.001-.2-2.447-.368l.062-2.134zM67.642 20.412c.077 1.29.97 1.673 2 1.673.755 0 1.663-.338 2.34-.63l.062 1.92a9.813 9.813 0 0 1-2.801.46c-3.248.015-4.187-2.165-4.187-4.221 0-2.195 1.308-4.144 3.725-4.144 2.509 0 3.694 1.98 3.694 4.16v.782h-4.833zm2.309-1.442v-.23c0-1.075-.293-1.582-1.124-1.582-.785 0-1.247.706-1.247 1.812h2.37zM74.43 17.972c0-1.136-.046-1.95-.092-2.318h2.601c.046.323.062.89.062 1.336h.03c.231-.63.724-1.52 2.047-1.52.2 0 .293.015.462.046v2.41c-.123-.046-.508-.093-.83-.093-.894 0-1.51.783-1.51 1.842v3.975h-2.77v-5.678zM80.325 15.654h2.894l1.385 5.48h.03l1.355-5.48h2.71l-2.571 7.996H82.85zM89.992 12.14h2.77v2.302h-2.77V12.14zm0 3.514h2.77v7.996h-2.77v-7.996zM100.843 17.864c-.292-.122-.754-.337-1.354-.337-1.016 0-1.816.629-1.816 2.133 0 1.197.415 2.118 1.77 2.118.677 0 1.37-.26 1.539-.353l.077 1.995c-.416.2-1.586.414-2.232.414-2.924 0-3.986-1.995-3.986-4.174 0-2.18 1.062-4.19 3.986-4.19 1.17 0 1.832.26 2.155.383l-.139 2.011zM105.169 20.412c.077 1.29.97 1.673 2 1.673.755 0 1.663-.338 2.34-.63l.062 1.92a9.813 9.813 0 0 1-2.802.46c-3.247.015-4.186-2.165-4.186-4.221 0-2.195 1.308-4.144 3.725-4.144 2.509 0 3.694 1.98 3.694 4.16v.782h-4.833zm2.309-1.442v-.23c0-1.075-.293-1.582-1.124-1.582-.785 0-1.247.706-1.247 1.812h2.37zM111.99 21.195h2.463v2.455h-2.462zM121.395 17.19c-.446-.247-.892-.37-1.493-.37-1.262 0-2.154.876-2.154 2.993 0 1.812.861 2.84 2.123 2.84.616 0 1.14-.184 1.586-.414l.061 1.181a4.664 4.664 0 0 1-1.647.338c-2.339 0-3.478-1.734-3.478-3.945 0-2.532 1.324-4.097 3.51-4.097.538 0 1.138.107 1.554.307l-.062 1.166zM123.38 12.14h1.294v4.758h.03c.34-.66 1.016-1.182 1.925-1.182 1.37 0 2.293.783 2.293 2.501v5.433h-1.293v-5.049c0-1.243-.462-1.78-1.293-1.78-1.016 0-1.662.706-1.662 2.118v4.711h-1.293V12.14z"/>
		</g>
		<path fill="#000" d="M4.815 6.757c-1.093 0-1.982.865-1.982 1.93v21.316c0 1.065.89 1.93 1.982 1.93h6.874l9.152 6.699-.015-6.7h113.188c1.094 0 1.983-.864 1.983-1.929V8.687c0-1.065-.889-1.93-1.983-1.93H4.815zm19.093 37.132l-13.8-9.198H4.815C2.16 34.69 0 32.587 0 30.003V8.687C0 6.103 2.16 4 4.815 4h129.2c2.655 0 4.816 2.103 4.816 4.687v21.316c0 2.584-2.161 4.687-4.817 4.687h-110.1l-.006 9.199z"/>
		<g fill="#F60">
			<path d="M34.16 37.886l-1.453 3.323-1.389-3.323h-2.02v5.885h1.51v-3.397l1.437 3.397h.811l1.461-3.397v3.397h1.51v-5.885zM37.189 43.77v-5.884h1.29c.114 0 .227.113.227.235v5.65h-1.517zM42.895 40.383h1.918c.152 0 .238.123.238.268v3.04c-.54.12-1.383.194-2.01.194-2.2 0-3.36-1.046-3.36-3.064 0-1.8 1.16-3.048 3.093-3.048.853 0 1.598.227 2.08.55l-.595 1.013c-.415-.186-.976-.316-1.371-.316-1.113 0-1.632.736-1.632 1.8 0 1.14.601 1.841 1.712 1.841.204 0 .456-.008.659-.039v-1.037h-.731v-1.202zM48.417 39.02h-.741v1.476h.741c.444 0 .793-.236.793-.795 0-.568-.349-.68-.793-.68zm1.119 4.75l-.7-1.62c-.143-.33-.243-.493-.547-.493h-.613v2.114h-1.484v-5.65c0-.121.135-.235.232-.235h2.094c1.137 0 2.113.235 2.113 1.7 0 .657-.365 1.33-1.047 1.464.34.115.682.55.869 1.022l.674 1.699h-1.591zM54.405 39.02c-.795 0-1.362.567-1.362 1.8 0 1.252.567 1.818 1.362 1.818.683 0 1.242-.566 1.242-1.817 0-1.234-.559-1.8-1.242-1.8m0 4.863c-1.932 0-2.954-1.36-2.954-3.063 0-1.688 1.022-3.048 2.954-3.048 1.81 0 2.834 1.36 2.834 3.048 0 1.703-1.024 3.063-2.834 3.063M60.145 43.884c-.998 0-1.925-.356-2.338-.64l.672-1.189c.376.227 1.105.575 1.779.575.38 0 .862-.073.862-.495 0-.396-.538-.518-1.243-.72-.852-.243-1.843-.58-1.843-1.723 0-1.23 1.097-1.919 2.524-1.919.943 0 1.673.333 2.045.688l-.818.93c-.406-.24-.82-.428-1.284-.428-.56 0-.876.21-.876.52 0 .304.406.46.917.613.903.277 2.135.562 2.135 1.74 0 1.214-.974 2.048-2.532 2.048"/>
		</g>
	</g>
</svg>
