<?xml version="1.0" encoding="UTF-8" standalone="no"?>
<svg width="95px" height="38px" viewBox="0 0 95 38" version="1.1" xmlns="http://www.w3.org/2000/svg">
    <!-- Generator: Sketch 3.8.3 (29802) - http://www.bohemiancoding.com/sketch -->
    <title>footer-logo-sportxx</title>
    <desc>Created with Sketch.</desc>
    <defs></defs>
    <g id="HEADERS" stroke="none" stroke-width="1" fill="none" fill-rule="evenodd">
        <g id="Assets-Logo-Footer" transform="translate(-96.000000, -181.000000)">
            <g id="SportXX-Logo" transform="translate(96.000000, 181.000000)">
                <g id="Group">
                    <polygon id="Fill-1" fill="#CD080C" points="5.39700127 3.64049766 5.39700127 33.9934416 89.413426 37.6118762 89.413426 0.358114486"></polygon>
                    <path d="M39.8385882,32.4837407 L39.8385882,27.4278762 L40.8684661,27.4278762 C40.9924043,27.4278762 41.062092,27.5104463 41.062092,27.6280864 L41.062092,32.4837407 L39.8385882,32.4837407 L39.8385882,32.4837407 Z" id="Fill-2" fill="#FEFEFE"></path>
                    <path d="M44.7318535,29.6052407 L46.3276129,29.6052407 C46.4586081,29.6052407 46.5287368,29.7086752 46.5287368,29.8338621 L46.5287368,32.4143995 C46.0717974,32.5196098 45.3877115,32.5795397 44.8562328,32.5795397 C43.0178897,32.5795397 42.0285894,31.6495164 42.0285894,29.9515023 C42.0285894,28.4354977 43.0178897,27.3296799 44.6277631,27.3296799 C45.3533087,27.3296799 45.9474182,27.5165724 46.3553998,27.7958014 L45.8927266,28.6019696 C45.5125318,28.4212921 45.0966111,28.3311752 44.7239144,28.3311752 C43.7425532,28.3311752 43.3006099,28.9992827 43.3006099,29.9515023 C43.3006099,30.9601005 43.8122409,31.6002407 44.793161,31.6002407 C44.9656159,31.6002407 45.2152566,31.5869229 45.3877115,31.5593995 L45.3877115,30.571222 L44.7318535,30.571222 L44.7318535,29.6052407 Z" id="Fill-4" fill="#FEFEFE"></path>
                    <path d="M49.5001661,28.3662897 L48.8376922,28.3662897 L48.8376922,29.6678785 L49.5001661,29.6678785 C49.880802,29.6678785 50.212921,29.451243 50.212921,28.9713598 C50.212921,28.4501916 49.9160869,28.3662897 49.5001661,28.3662897 L49.5001661,28.3662897 Z M50.4890254,32.4836963 L49.8935927,31.0586963 C49.7700956,30.7714766 49.6858529,30.632972 49.4304785,30.632972 L48.8376922,30.632972 L48.8376922,32.4836963 L47.6556482,32.4836963 L47.6556482,27.6280421 C47.6556482,27.5246075 47.7509174,27.4278318 47.8479509,27.4278318 L49.5557399,27.4278318 C50.5238692,27.4278318 51.3521821,27.6280421 51.3521821,28.8736963 C51.3521821,29.4361495 51.048291,29.9937196 50.4621206,30.1468738 C50.7518978,30.2454252 51.041234,30.6196542 51.2008981,31.0236262 L51.7747188,32.4836963 L50.4890254,32.4836963 Z" id="Fill-6" fill="#FEFEFE"></path>
                    <path d="M54.6491146,28.331264 C53.9513558,28.331264 53.4745686,28.8453294 53.4745686,29.9467079 C53.4745686,31.0503061 53.9584128,31.5807967 54.6698445,31.5807967 C55.2855659,31.5807967 55.7623531,31.0503061 55.7623531,29.9467079 C55.7623531,28.8453294 55.2855659,28.331264 54.6491146,28.331264 M54.608978,32.5796285 C52.9968993,32.5796285 52.1893163,31.3717079 52.1893163,29.9467079 C52.1893163,28.5261472 53.066587,27.3297687 54.6769014,27.3297687 C56.2109123,27.3297687 57.0471643,28.4906332 57.0471643,29.9111939 C57.0471643,31.3370818 56.114761,32.5796285 54.608978,32.5796285" id="Fill-8" fill="#FEFEFE"></path>
                    <path d="M59.6261374,32.5797617 C58.7748893,32.5797617 58.0078838,32.2761168 57.6554759,32.0337336 L58.1882779,31.0788505 C58.5058419,31.2746215 59.1489092,31.5720514 59.7222887,31.5720514 C60.0808715,31.5720514 60.4901763,31.4961402 60.4901763,31.1001589 C60.4901763,30.7179393 60.0332369,30.5985234 59.4325115,30.4245047 C58.7069658,30.2167477 57.8627747,29.9037804 57.8627747,28.979528 C57.8627747,27.9562804 58.7691555,27.3299019 59.9507584,27.3299019 C60.7521666,27.3299019 61.3731808,27.6153458 61.692068,27.9212103 L61.0490008,28.6519112 C60.704091,28.4428224 60.3238962,28.2834533 59.9291464,28.2834533 C59.4047247,28.2834533 59.1489092,28.4770047 59.1489092,28.7553458 C59.1489092,29.068757 59.4395685,29.187729 59.9423783,29.3550888 C60.704091,29.6054626 61.7472007,29.8278692 61.7472007,30.8218178 C61.7472007,31.8313037 60.9171235,32.5797617 59.6261374,32.5797617" id="Fill-10" fill="#FEFEFE"></path>
                    <path d="M22.4751997,15.3128458 C22.3636112,15.4105093 19.8403001,17.6123785 19.7485593,17.6918411 L17.2278946,17.6918411 L17.2278946,23.8544112 L13.14455,23.8544112 L13.14455,6.12448131 L19.7472361,6.12448131 C19.8394179,6.20749533 22.3671397,8.48216822 22.4751997,8.57983178 L22.4751997,15.3128458 Z M12.8022865,5.78088318 L12.8022865,24.1984533 L14.1550212,24.1984533 L14.1550212,24.8039673 L18.5806293,24.8039673 L18.5806293,18.642285 L20.9941162,18.642285 L23.8261701,16.172285 L23.8261701,9.28434112 L19.8782313,5.78088318 L12.8022865,5.78088318 Z" id="Fill-12" fill="#1D1C1B"></path>
                    <polygon id="Fill-14" fill="#1D1C1B" points="17.2282915 14.6042523 18.3944573 14.6042523 18.3944573 9.21189252 17.2282915 9.21189252"></polygon>
                    <polygon id="Fill-16" fill="#1D1C1B" points="29.757517 20.7668224 31.0057202 20.7668224 31.0057202 9.2167757 29.757517 9.2167757"></polygon>
                    <path d="M35.2044905,21.4276051 C35.1065749,21.5221612 32.8179084,23.761764 32.7248445,23.8541005 L28.0901734,23.8541005 C27.9962273,23.7644276 25.659044,21.5212734 25.5598053,21.4267173 L25.5598053,8.57685748 C25.659044,8.4805257 27.9971095,6.22094626 28.0910555,6.13082944 L32.5281312,6.13082944 C32.620313,6.21473131 35.0986358,8.48274533 35.2044905,8.57952103 L35.2044905,21.4276051 Z M27.9525623,5.78589953 L25.2175418,8.42991822 L25.2175418,21.5741005 L27.9530033,24.1981425 L28.5665195,24.1981425 L29.1981191,24.8036565 L33.9734887,24.8036565 L36.555461,22.283493 L36.555461,9.28669393 L32.6600085,5.78589953 L27.9525623,5.78589953 Z" id="Fill-17" fill="#1D1C1B"></path>
                    <path d="M47.6359328,13.2664393 C47.5269907,13.363215 45.6392487,15.0323738 45.6392487,15.0323738 C45.6392487,15.0323738 47.529637,16.7552477 47.6359328,16.8502477 L47.6359328,23.8545 L43.6871118,23.8545 L43.6871118,16.6034252 L42.441114,16.6034252 L42.441114,23.8545 L38.3573283,23.8545 L38.3573283,6.12457009 L45.1567278,6.12457009 C45.2506738,6.21779439 47.5393404,8.47914953 47.6359328,8.57459346 L47.6359328,13.2664393 Z M38.0146238,5.78097196 L38.0146238,24.1980981 L39.3660353,24.1980981 L39.3660353,24.8040561 L43.7898791,24.8040561 L43.7898791,24.1980981 L44.6989062,24.1980981 L44.6989062,24.8040561 L48.9833747,24.8040561 L48.9833747,17.5565327 L47.075785,15.8127944 L48.9833747,14.1236589 L48.9833747,9.28442991 L45.2965442,5.78097196 L38.0146238,5.78097196 Z" id="Fill-18" fill="#1D1C1B"></path>
                    <polygon id="Fill-19" fill="#1D1C1B" points="42.441555 13.5161916 43.6871118 13.5161916 43.6871118 9.21189252 42.441555 9.21189252"></polygon>
                    <path d="M58.4490333,9.21215888 L56.3941291,9.21215888 L56.3941291,23.8541449 L52.1943444,23.8541449 L52.1943444,9.21215888 L50.0097683,9.21215888 L50.0097683,6.12465888 L58.4490333,6.12465888 L58.4490333,9.21215888 Z M58.7908557,5.78061682 L49.6670637,5.78061682 L49.6670637,9.55664486 L51.0215626,9.55664486 L51.0215626,10.1670421 L51.8516398,10.1670421 L51.8516398,24.1981869 L53.2034924,24.1981869 L53.2034924,24.8037009 L57.7477459,24.8037009 L57.7477459,10.1670421 L59.7982395,10.1670421 L59.7982395,6.7355 L58.7908557,6.7355 L58.7908557,5.78061682 Z" id="Fill-20" fill="#1D1C1B"></path>
                    <path d="M89.0705451,10.6947032 L89.0705451,20.6227402 C87.6163663,17.8854716 86.4281474,15.6498431 86.4131513,15.6227634 C86.4307938,15.5903566 87.6966394,13.2433018 89.0705451,10.6947032 L89.0705451,10.6947032 Z M84.7080087,29.615862 C84.630382,29.439622 80.7772713,20.6027634 80.7772713,20.6027634 L80.1800745,20.6027634 C80.1800745,20.6027634 75.6014181,31.1966946 75.5237914,31.3742664 C75.3363404,31.3738224 67.3747446,31.3347566 66.8970754,31.3334249 C67.1436286,30.898374 76.2286072,14.8374523 76.2286072,14.8374523 C76.2286072,14.8374523 70.4577624,4.16316991 70.2266464,3.73522196 L78.0687145,3.73522196 C78.1384022,3.92433589 80.1734585,9.45924764 80.1734585,9.45924764 L80.7865336,9.45924764 C80.7865336,9.45924764 82.6469298,3.93232662 82.7130889,3.73522196 L90.6865933,3.73522196 C90.4568004,4.16228205 84.702716,14.8339009 84.702716,14.8339009 C84.702716,14.8339009 92.3291052,29.1852505 92.558016,29.615862 L84.7080087,29.615862 Z M73.6532508,10.7035817 C74.8454393,12.9085791 75.8541462,14.7748583 75.8859026,14.8339009 C75.8576747,14.8827331 74.7122388,16.9092708 73.2254215,19.5377768 L71.5039596,15.531314 L73.6532508,10.7035817 Z M70.4480591,14.7051613 C70.4480591,14.7051613 71.715669,17.6444179 72.8227326,20.221872 L70.7396005,23.8962756 L69.2091182,23.8962756 C69.1367841,23.6680959 67.7183313,19.1737547 67.7183313,19.1737547 L67.1925864,19.1737547 C67.1925864,19.1737547 65.6250549,23.6760866 65.5496334,23.8962756 L60.3618716,23.8962756 C60.5616723,23.4381405 64.3671483,14.7056053 64.3671483,14.7056053 C64.3671483,14.7056053 60.7733817,6.5035657 60.5726988,6.04676235 L65.7604607,6.04676235 C65.8332358,6.27361027 67.1890579,10.5393279 67.1890579,10.5393279 L67.7205366,10.5393279 C67.7205366,10.5393279 68.9616828,6.28026921 69.0300473,6.04676235 L71.1497875,6.04676235 L72.8721314,9.26347477 C71.7769765,11.7259512 70.4480591,14.7051613 70.4480591,14.7051613 L70.4480591,14.7051613 Z M89.0705451,37.2541113 C88.3657293,37.2221483 6.38612511,33.6911339 5.73952939,33.6627224 L5.73952939,24.8010037 L8.63553723,24.8010037 L11.3590901,22.2581761 L11.3590901,16.0982118 L7.82266144,13.0679497 L5.89831143,12.8921537 L5.89831143,11.965673 L6.56299065,11.965673 L6.56299065,12.5410055 L11.098423,12.5410055 L11.098423,8.80445177 L7.82133826,5.71026386 L5.73952939,5.71026386 L5.73952939,3.97183633 C6.38877148,3.94653236 88.3696988,0.744469602 89.0705451,0.71694598 L89.0705451,3.43334997 L82.4987332,3.43334997 L81.0000072,7.88463006 C80.4014872,6.25718488 79.6799111,4.29501694 79.6799111,4.29501694 L78.5944595,4.29501694 C78.403921,3.77606347 78.2777775,3.43334997 78.2777775,3.43334997 L69.7225134,3.43334997 C69.7225134,3.43334997 70.2284106,4.36915315 70.9495457,5.70271706 L68.7737908,5.70271706 C68.7737908,5.70271706 68.0231046,8.27839544 67.6579059,9.53293992 L66.7546126,6.70289 L66.3289885,6.70289 C66.1437428,6.12178641 66.0114245,5.70271706 66.0114245,5.70271706 L60.0482771,5.70271706 C60.0482771,5.70271706 63.9331441,14.5697629 63.9926874,14.7064931 C63.9344673,14.8436673 59.8374498,24.2403209 59.8374498,24.2403209 L61.2528152,24.2403209 L60.9678897,24.8920093 L66.541139,24.8920093 L67.9190142,20.9454769 C68.3583111,22.3371956 68.9581544,24.2403209 68.9581544,24.2403209 L69.7428022,24.2403209 L69.9492189,24.8920093 L70.1966542,24.8920093 C68.1713012,28.471412 66.3836801,31.6326333 66.3836801,31.6326333 L68.3653681,31.6415119 C68.1130811,32.087217 67.9688541,32.3433642 67.9688541,32.3433642 L77.1296952,32.3873132 C77.1296952,32.3873132 80.1756639,25.334163 81.3383012,22.6399554 C82.4797676,25.2604707 84.5117365,29.9172901 84.5117365,29.9172901 L85.7061302,29.9172901 C85.8971097,30.3563362 86.0153141,30.6244696 86.0153141,30.6244696 L89.0705451,30.6244696 L89.0705451,37.2541113 Z M2.95952065,23.8443359 C2.8668978,23.7586575 0.447677118,21.5314637 0.342704552,21.4360189 L0.342704552,18.3156392 L4.79654055,18.3156392 L4.79654055,20.7670173 L6.06415044,20.7670173 L6.06415044,16.6992922 C6.06415044,16.6992922 3.4341025,16.4711125 3.329571,16.4626778 C3.25017998,16.3952006 0.584847151,14.1125156 0.471053361,14.0152951 L0.471053361,8.52078089 C0.568968948,8.42666786 2.8964489,6.14620253 2.99039494,6.05475308 L7.68460929,6.05475308 C7.7776732,6.14398288 10.154552,8.42666786 10.2546729,8.52255661 L10.2546729,11.6211838 L6.06415044,11.6211838 L6.06415044,9.16758602 L4.79654055,9.16758602 L4.79654055,13.1376466 C4.79654055,13.1376466 7.57743141,13.3906864 7.68240398,13.4013407 C7.761795,13.4697058 10.4077211,15.7736994 10.5193096,15.870476 L10.5193096,21.4360189 C10.4161013,21.5319076 8.03040127,23.7564379 7.93689629,23.8443359 L2.95952065,23.8443359 Z M89.7550721,21.9110234 L89.7550721,9.42595293 C91.1801408,6.78190943 92.521849,4.29501694 92.521849,4.29501694 L90.7258478,4.29501694 L91.1907263,3.43334997 L89.7550721,3.43334997 L89.7550721,0 L5.05500241,3.30949367 L5.05500241,5.71026386 L2.85146066,5.71026386 L0.12878987,8.37650383 L0.12878987,14.1746657 L3.86016762,17.3767285 L5.05500241,17.4779444 L5.05500241,17.9711499 L0,17.9711499 L0,21.5869549 L3.47026952,24.8010037 L5.05500241,24.8010037 L5.05500241,34.3215136 L89.7550721,37.9715012 L89.7550721,30.6244696 L94.3870968,30.6244696 C94.3870968,30.6244696 91.9378839,26.0178142 89.7550721,21.9110234 L89.7550721,21.9110234 Z" id="Fill-21" fill="#1D1C1B"></path>
                    <path d="M7.68447697,6.05474065 C7.77798194,6.14396963 10.1548607,8.42618925 10.2545406,8.52252103 L10.2545406,11.6211192 L6.06401812,11.6211192 L6.06401812,9.16754439 L4.79640823,9.16754439 L4.79640823,13.1375678 C4.79640823,13.1375678 7.5772991,13.3906051 7.68271272,13.4003715 C7.76166268,13.468736 10.4075888,15.7735958 10.5191773,15.8703715 L10.5191773,21.4358621 C10.41641,21.53175 8.03026895,23.7562593 7.93720503,23.8441565 L2.95982939,23.8441565 C2.86676548,23.758479 0.4475448,21.5313061 0.342572234,21.4358621 L0.342572234,18.3155117 L4.79640823,18.3155117 L4.79640823,20.7668668 L6.06401812,20.7668668 L6.06401812,16.6991799 C6.06401812,16.6991799 3.43441125,16.4710023 3.32943868,16.4625678 C3.25048872,16.3942033 0.585155894,14.1115397 0.471362104,14.0143201 L0.471362104,8.52074533 C0.568836629,8.42618925 2.89631658,6.14618925 2.99026262,6.05474065 L7.68447697,6.05474065 Z" id="Fill-22" fill="#FEFEFE"></path>
                    <path d="M19.7473244,6.12470327 C19.8395062,6.20727336 22.3672279,8.48239019 22.4752879,8.57960981 L22.4752879,15.3130678 C22.3636994,15.4102874 19.8403883,17.6121565 19.7486475,17.6920631 L17.2279828,17.6920631 L17.2279828,23.8541893 L13.1446382,23.8541893 L13.1446382,6.12470327 L19.7473244,6.12470327 Z M17.2279828,14.6045631 L18.3941486,14.6045631 L18.3941486,9.21220327 L17.2279828,9.21220327 L17.2279828,14.6045631 Z" id="Fill-23" fill="#FEFEFE"></path>
                    <path d="M32.5279106,6.13060748 C32.6205335,6.21450935 35.0984153,8.48296729 35.20427,8.57974299 L35.20427,21.4273832 C35.1063544,21.5219393 32.8181289,23.761986 32.7246239,23.8543224 L28.0899528,23.8543224 C27.9964479,23.7642056 25.6588235,21.5214953 25.5595847,21.4269393 L25.5595847,8.57663551 C25.6588235,8.48074766 27.9968889,6.2207243 28.090835,6.13060748 L32.5279106,6.13060748 Z M29.7576052,20.7668224 L31.0058084,20.7668224 L31.0058084,9.2167757 L29.7576052,9.2167757 L29.7576052,20.7668224 Z" id="Fill-24" fill="#FEFEFE"></path>
                    <path d="M45.1566396,6.12470327 C45.2510267,6.21792757 47.5396932,8.47928271 47.6358446,8.57428271 L47.6358446,13.2656846 C47.5269024,13.3633481 45.6391605,15.032507 45.6391605,15.032507 C45.6391605,15.032507 47.5299899,16.754493 47.6358446,16.8503808 L47.6358446,23.8541893 L43.6865826,23.8541893 L43.6865826,16.6026706 L42.4414668,16.6026706 L42.4414668,23.8541893 L38.356799,23.8541893 L38.356799,6.12470327 L45.1566396,6.12470327 Z M42.4414668,13.5165023 L43.6865826,13.5165023 L43.6865826,9.21220327 L42.4414668,9.21220327 L42.4414668,13.5165023 Z" id="Fill-25" fill="#FEFEFE"></path>
                    <polygon id="Fill-26" fill="#FEFEFE" points="58.4490333 6.12470327 58.4490333 9.21220327 56.3941291 9.21220327 56.3941291 23.8541893 52.1943444 23.8541893 52.1943444 9.21220327 50.0097683 9.21220327 50.0097683 6.12470327"></polygon>
                    <path d="M71.1499198,6.04652804 L72.8722638,9.26365421 C71.7766677,11.7261075 70.4481914,14.7039579 70.4481914,14.7039579 C70.4481914,14.7039579 71.7153602,17.6436308 72.8228649,20.2215047 L70.7397329,23.8958738 L69.2088094,23.8958738 C69.1364754,23.6676963 67.7184636,19.1733972 67.7184636,19.1733972 L67.1922776,19.1733972 C67.1922776,19.1733972 65.6251872,23.6756869 65.5497657,23.8958738 L60.3620039,23.8958738 C60.5613636,23.437743 64.3668396,14.7057336 64.3668396,14.7057336 C64.3668396,14.7057336 60.7730729,6.5033271 60.5728311,6.04652804 L65.760593,6.04652804 C65.832927,6.27337383 67.1891902,10.5381636 67.1891902,10.5381636 L67.7206689,10.5381636 C67.7206689,10.5381636 68.9618152,6.28003271 69.0301797,6.04652804 L71.1499198,6.04652804 Z" id="Fill-27" fill="#FEFEFE"></path>
                    <path d="M90.6868138,3.73518692 C90.457021,4.16224299 84.7024955,14.8337617 84.7024955,14.8337617 C84.7024955,14.8337617 92.3288847,29.1849766 92.5577954,29.6155841 L84.7077882,29.6155841 C84.6306025,29.4393458 80.7770508,20.6025701 80.7770508,20.6025701 L80.180295,20.6025701 C80.180295,20.6025701 75.6011976,31.1964019 75.5240119,31.373972 C75.3365609,31.373528 67.3745241,31.3344626 66.8968548,31.3331308 C67.1438491,30.8980841 76.2283866,14.8364252 76.2283866,14.8364252 C76.2283866,14.8364252 70.457983,4.16313084 70.2264258,3.73518692 L78.068494,3.73518692 C78.1381816,3.92429907 80.1736791,9.45915888 80.1736791,9.45915888 L80.7867541,9.45915888 C80.7867541,9.45915888 82.6467092,3.93228972 82.7133095,3.73518692 L90.6868138,3.73518692 Z" id="Fill-28" fill="#FEFEFE"></path>
                    <polygon id="Fill-29" fill="#FEFEFE" points="37.4952301 32.4837407 37.4952301 29.4104463 36.1817498 32.4837407 35.5602946 32.4837407 34.2671032 29.4104463 34.2671032 32.4837407 33.0506564 32.4837407 33.0506564 27.4278762 34.7015484 27.4278762 35.9202005 30.361778 37.1904568 27.4278762 38.7116769 27.4278762 38.7116769 32.4837407"></polygon>
                </g>
            </g>
        </g>
    </g>
</svg>