<svg xmlns="http://www.w3.org/2000/svg" xmlns:xlink="http://www.w3.org/1999/xlink" width="200" height="82" viewBox="0 0 200 82">
    <defs>
        <path id="b" d="M3.463 0C3.577 0 0 0 0 3.477v55.636c0-.117 0 3.477 3.463 3.477h166.204c-.114 0 3.463 0 3.463-3.477V3.477c0 .117 0-3.477-3.463-3.477H3.463z"/>
        <filter id="a" width="104%" height="111.2%" x="-2%" y="-4%" filterUnits="objectBoundingBox">
            <feOffset dy="1" in="SourceAlpha" result="shadowOffsetOuter1"/>
            <feGaussianBlur in="shadowOffsetOuter1" result="shadowBlurOuter1" stdDeviation="1"/>
            <feColorMatrix in="shadowBlurOuter1" values="0 0 0 0 0 0 0 0 0 0 0 0 0 0 0 0 0 0 0.5 0"/>
        </filter>
        <filter id="c" width="103.5%" height="109.6%" x="-1.7%" y="-3.2%" filterUnits="objectBoundingBox">
            <feGaussianBlur in="SourceAlpha" result="shadowBlurInner1" stdDeviation=".5"/>
            <feOffset dx="-1" dy="-1" in="shadowBlurInner1" result="shadowOffsetInner1"/>
            <feComposite in="shadowOffsetInner1" in2="SourceAlpha" k2="-1" k3="1" operator="arithmetic" result="shadowInnerInner1"/>
            <feColorMatrix in="shadowInnerInner1" values="0 0 0 0 0 0 0 0 0 0 0 0 0 0 0 0 0 0 0.340551404 0"/>
        </filter>
    </defs>
    <g fill="none" fill-rule="evenodd">
        <g transform="translate(2 2)">
            <use fill="#000" filter="url(#a)" xlink:href="#b"/>
            <use fill="#FEFEFE" xlink:href="#b"/>
            <use fill="#000" filter="url(#c)" xlink:href="#b"/>
        </g>
        <path fill="#F60" d="M93.697 50.021v-8.028l-3.436 8.028h-2.09l-3.336-8.028v8.028h-3.642v-13.93h4.802l3.443 7.855 3.42-7.854h4.391v13.93zM100.104 50.021v-13.93h3.036c.269 0 .533.266.533.55v13.38h-3.569zM113.766 42.015h4.514c.358 0 .56.288.56.626v7.193c-1.273.282-3.257.453-4.73.453-5.357 0-8.085-2.443-8.085-7.25 0-4.294 2.728-7.21 7.457-7.21 2.005 0 3.76.53 4.891 1.286l-1.398 2.366c-.978-.435-2.297-.736-3.227-.736-2.616 0-4.018 1.718-4.018 4.295 0 2.66 1.596 4.391 4.208 4.391.479 0 1.072-.017 1.549-.091v-2.513h-1.72v-2.81zM126.941 38.742h-1.748v3.537h1.748c1.041 0 1.864-.551 1.864-1.947 0-1.327-.823-1.59-1.864-1.59zm2.628 11.28l-1.645-3.874c-.337-.77-.573-1.154-1.287-1.154h-1.444v5.028h-3.49v-13.38c0-.284.316-.55.545-.55h4.926c2.678 0 5.11.55 5.11 3.976 0 1.62-.996 3.191-2.601 3.508.799.267 1.605 1.287 2.074 2.389l1.736 4.057h-3.924zM141.208 38.742c-1.875 0-3.21 1.326-3.21 4.296 0 2.927 1.335 4.337 3.21 4.337 1.696 0 3.098-1.41 3.098-4.337 0-2.97-1.402-4.296-3.098-4.296m0 11.545c-4.546 0-6.954-3.178-6.954-7.25 0-4.032 2.408-7.21 6.954-7.21 4.436 0 6.843 3.178 6.843 7.21 0 4.072-2.407 7.25-6.843 7.25M155.069 50.287c-2.528 0-4.706-.832-5.68-1.496l1.585-2.867c.879.618 2.677 1.432 4.36 1.432.901 0 2.03-.171 2.03-1.246 0-.927-1.265-1.209-2.926-1.68-2.183-.57-4.513-1.36-4.513-4.118 0-2.877 2.577-4.485 6.12-4.485 2.213 0 3.934.777 4.812 1.608l-1.93 2.174c-.956-.565-1.929-1.003-3.02-1.003-1.315 0-2.144.494-2.144 1.215 0 .713 1.038 1.078 2.241 1.525 2.12.647 5.025 1.31 5.025 4.066 0 2.928-2.294 4.875-5.96 4.875"/>
        <path fill="#131413" d="M21.096 27.86c2.065 0 3.477-1.337 3.477-4.53 0-2.755-1.475-4.09-3.498-4.09h-1.348v8.62h1.37zm-4.762-10.603c0-.376.295-.668.674-.668h4.467c3.752 0 6.617 2.546 6.617 6.7 0 4.841-2.887 7.22-6.658 7.22h-5.1V17.257zM36.795 19.01c-1.792 0-3.182 1.398-3.182 4.529 0 3.193 1.39 4.571 3.182 4.571 1.833 0 3.224-1.378 3.224-4.571 0-3.13-1.391-4.529-3.224-4.529m0 11.73c-4.32 0-6.849-3.152-6.849-7.201 0-4.007 2.53-7.158 6.849-7.158 4.362 0 6.912 3.15 6.912 7.158 0 4.049-2.55 7.2-6.912 7.2M49.936 30.51V16.589h2.834c.4 0 .694.292.694.667V30.51h-3.528zM55.53 16.589h10.578c.358 0 .695.313.695.688v2.004h-4.025V30.51h-3.435V19.28H55.53v-2.692zM16.363 50.018h1.33v-13.93h-1.33zM39.455 45.9h1.331v-9.878h-1.33zM77.334 23.327h-4.175v-4.17h-1.404v4.17H67.58v1.329h4.175v4.376h1.404v-4.376h4.175zM62.549 49.943h1.33v-13.92h-1.33zM20.98 42.974h1.332v-6.886H20.98zM25.6 42.974h1.331v-6.886h-1.33zM30.218 42.974h1.33v-6.886h-1.33zM34.837 42.974h1.331v-6.886h-1.33zM44.074 42.974h1.331v-6.886h-1.33zM48.693 42.974h1.331v-6.886h-1.331zM53.311 42.974h1.332v-6.886H53.31zM57.93 42.974h1.332v-6.886H57.93zM67.167 42.974h1.332v-6.886h-1.332zM71.786 42.974h1.331v-6.886h-1.33z"/>
        <path fill="#063" d="M87.756 30.74c-4.467 0-7.25-2.734-7.25-7.16 0-4.278 2.846-7.22 7.334-7.22 1.96 0 3.54.52 4.51 1.001l-.991 2.421c-.906-.397-1.897-.71-3.119-.71-2.529 0-4.108 1.691-4.108 4.508 0 2.734 1.517 4.426 4.045 4.426.421 0 .8-.021 1.244-.126v-2.964h-2.488v-2.568h5.164c.42 0 .737.272.737.69v6.741c-.97.438-2.634.96-5.078.96M99.266 25.376h3.52l-1.792-5.886-1.728 5.886zm3.251-8.787c.548 0 .843.376.948.71l4.299 13.21h-3.392l-.843-2.63h-5.037l-.8 2.63h-3.287l4.424-13.92h3.688zM114.628 22.766c1.285 0 1.917-.751 1.917-1.794 0-1.148-.632-1.753-1.917-1.753h-1.56v3.547h1.56zm2.844 7.744l-1.39-3.736c-.358-.981-.823-1.42-1.538-1.42h-1.476v5.156h-3.393V17.256c0-.375.296-.667.675-.667h4.868c3.034 0 4.888 1.524 4.888 3.799 0 1.544-.99 2.984-2.676 3.735.927.313 1.644 1.064 2.044 2.107l1.623 4.28h-3.625zM127.807 27.86c2.065 0 3.477-1.337 3.477-4.53 0-2.755-1.475-4.09-3.498-4.09h-1.313v8.62h1.334zm-4.727-10.603c0-.376.296-.668.676-.668h4.43c3.751 0 6.617 2.546 6.617 6.7 0 4.841-2.887 7.22-6.66 7.22h-5.063V17.257zM145.02 22.057c.231 0 .4.146.4.396v2.234h-4.973v3.151h6.238v2.672h-9.589V16.589h8.724c.359 0 .696.313.696.688v1.962h-6.069v2.818h4.573zM152.16 21.87v8.64h-3.014V16.589h3.161l5.5 8.828v-8.828h2.318c.4 0 .695.292.695.668V30.51h-3.223l-5.437-8.64z"/>
        <path fill="#FFF" d="M60.48 70.01v9.027h5.146v-1.492h-3.334v-2.427h3.02v-1.492h-3.02v-2.124H65.5v-1.491h-5.02zm6.002 9.027h1.736v-4.513c0-.759.327-1.125.919-1.125.516 0 .742.265.742.948v4.69h1.737v-5.044c0-1.34-.642-1.934-1.724-1.934-.73 0-1.36.303-1.724.973h-.025v-.796h-1.661v6.801zm6.002-2.225v.24c0 1.302.54 2.162 2.491 2.162 1.46 0 2.517-.708 2.517-2.136 0-1.024-.403-1.58-1.497-1.947l-1.045-.354c-.579-.19-.755-.468-.755-.797 0-.48.378-.733.818-.733.566 0 .768.341.768 1.024h1.56v-.278c0-1.226-.742-1.934-2.315-1.934-1.787 0-2.492.923-2.492 2.048 0 .96.49 1.555 1.447 1.896l1.22.442c.34.127.63.33.63.772 0 .543-.352.809-.88.809-.592 0-.907-.392-.907-.986v-.228h-1.56zm10.796-.91h-3.435v.543c0 .797.214 1.58.856 1.58.578 0 .818-.442.918-1.276h1.56c-.062 1.58-.817 2.465-2.453 2.465-2.517 0-2.618-1.947-2.618-3.64 0-1.821.353-3.515 2.693-3.515 2.026 0 2.48 1.365 2.48 3.45v.393zm-3.435-1.037h1.774c-.038-1.036-.163-1.618-.88-1.618-.693 0-.894.72-.894 1.353v.265zm4.341 4.172h1.737v-4.475c0-.784.352-1.163.906-1.163.49 0 .679.316.679.885v4.753h1.736v-4.475c0-.784.353-1.163.906-1.163.491 0 .68.316.68.885v4.753h1.736v-4.943c0-1.315-.54-2.035-1.686-2.035-.818 0-1.447.366-1.711 1.087h-.025c-.189-.695-.768-1.087-1.56-1.087-.73 0-1.271.253-1.712.872h-.025v-.695h-1.66v6.801zm11.275-3.4c0 1.478.15 2.237.918 2.237.755 0 .906-.759.906-2.238s-.15-2.237-.906-2.237c-.767 0-.918.758-.918 2.237zm-1.737 3.4v-9.026h1.737v2.857h.025c.365-.544.805-.81 1.46-.81 1.421 0 2.076 1.05 2.076 3.578 0 2.529-.655 3.578-2.077 3.578-.68 0-1.157-.265-1.535-.898h-.025v.721h-1.66zm6.355 0h1.736v-9.026h-1.736v9.026zm7.876-3.135h-3.435v.543c0 .797.214 1.58.856 1.58.579 0 .818-.442.919-1.276h1.56c-.063 1.58-.818 2.465-2.454 2.465-2.516 0-2.617-1.947-2.617-3.64 0-1.821.352-3.515 2.693-3.515 2.026 0 2.478 1.365 2.478 3.45v.393zm-3.435-1.037h1.775c-.038-1.036-.164-1.618-.881-1.618-.692 0-.894.72-.894 1.353v.265zm4.442 2.2v1.972h.654v.202c0 .468-.213.923-.654.999v.885c1.347-.126 1.661-1.075 1.661-2.415v-1.643h-1.66zm10.86-2.377c0-1.605-.831-2.63-2.43-2.63-1.597 0-2.742.784-2.742 3.578 0 2.731.855 3.578 2.592 3.578 1.837 0 2.58-.999 2.58-2.781h-1.662c0 1.1-.264 1.593-.843 1.593-.78 0-.93-.696-.93-2.377 0-1.568.138-2.326.993-2.326.655 0 .78.708.78 1.365h1.661zm2.793-4.677h-1.661v1.972h.654v.202c0 .468-.214.923-.654.999v.885c1.346-.127 1.66-1.075 1.66-2.415v-1.643zm6.304 5.89h-3.435v.544c0 .797.214 1.58.855 1.58.58 0 .818-.442.919-1.276h1.56c-.063 1.58-.818 2.465-2.454 2.465-2.516 0-2.617-1.947-2.617-3.64 0-1.821.353-3.515 2.693-3.515 2.026 0 2.479 1.365 2.479 3.45v.393zm-3.435-1.036h1.774c-.038-1.036-.164-1.618-.88-1.618-.693 0-.894.72-.894 1.353v.265zm4.051 1.947v.24c0 1.302.541 2.162 2.492 2.162 1.46 0 2.516-.708 2.516-2.136 0-1.024-.402-1.58-1.497-1.947l-1.044-.354c-.58-.19-.755-.468-.755-.797 0-.48.377-.733.818-.733.566 0 .767.341.767 1.024h1.56v-.278c0-1.226-.742-1.934-2.315-1.934-1.787 0-2.491.923-2.491 2.048 0 .96.49 1.555 1.447 1.896l1.22.442c.34.127.63.33.63.772 0 .543-.353.809-.881.809-.592 0-.906-.392-.906-.986v-.228h-1.56zm6.254-4.576h-.88v1.188h.88v3.894c0 1.378.252 1.795 1.61 1.795.403 0 .756-.038 1.133-.076v-1.214a3.57 3.57 0 0 1-.39.026c-.503 0-.616-.215-.616-.746v-3.679h1.006v-1.188h-1.006v-1.947h-1.737v1.947zm6.367 6.801h1.737v-4.475c0-.784.352-1.163.906-1.163.49 0 .68.316.68.885v4.753h1.736v-4.475c0-.784.352-1.163.906-1.163.49 0 .68.316.68.885v4.753h1.736v-4.943c0-1.315-.542-2.035-1.687-2.035-.817 0-1.447.366-1.71 1.087h-.026c-.189-.695-.768-1.087-1.56-1.087-.73 0-1.271.253-1.712.872h-.025v-.695h-1.66v6.801zm9.601 0h1.737v-6.801h-1.737v6.801zm0-7.636h1.737V69.91h-1.737V71.4zm7.877 4.5H156.2v.544c0 .797.214 1.58.856 1.58.578 0 .817-.442.918-1.276h1.56c-.062 1.58-.817 2.465-2.453 2.465-2.517 0-2.618-1.947-2.618-3.64 0-1.821.353-3.515 2.693-3.515 2.026 0 2.48 1.365 2.48 3.45v.393zm-3.435-1.036h1.774c-.038-1.036-.163-1.618-.88-1.618-.693 0-.894.72-.894 1.353v.265zm7.814 4.172h1.66v-6.801h-1.736v4.513c0 .758-.327 1.125-.918 1.125-.516 0-.742-.266-.742-.948v-4.69h-1.737v5.044c0 1.34.642 1.934 1.724 1.934.73 0 1.359-.303 1.724-.973h.025v.796zm5.146-4.753l-.93-2.048h-1.813l1.762 3.3-1.837 3.501h1.812l1.006-2.225 1.007 2.225h1.812l-1.837-3.502 1.762-3.3h-1.812l-.932 2.049zm3.587 2.78v1.973h1.66v-1.972h-1.66z"/>
    </g>
</svg>
